M48
; DRILL file {KiCad (6.0.7)} date Wed Oct  5 21:46:59 2022
; FORMAT={-:-/ absolute / inch / decimal}
; #@! TF.CreationDate,2022-10-05T21:46:59-04:00
; #@! TF.GenerationSoftware,Kicad,Pcbnew,(6.0.7)
; #@! TF.FileFunction,Plated,1,2,PTH
FMAT,2
INCH
; #@! TA.AperFunction,Plated,PTH,ViaDrill
T1C0.0090
; #@! TA.AperFunction,Plated,PTH,ViaDrill
T2C0.0100
; #@! TA.AperFunction,Plated,PTH,ViaDrill
T3C0.0120
; #@! TA.AperFunction,Plated,PTH,ComponentDrill
T4C0.0315
; #@! TA.AperFunction,Plated,PTH,ComponentDrill
T5C0.0394
%
G90
G05
T1
X5.379Y-3.455
X5.379Y-3.492
T2
X5.059Y-3.789
X5.166Y-3.905
X5.3Y-3.473
X5.4407Y-3.7487
X5.442Y-3.871
X5.459Y-3.504
X5.518Y-3.871
T3
X5.044Y-2.837
X5.516Y-3.6264
X5.706Y-3.189
X5.735Y-3.35
X6.07Y-2.844
X6.137Y-3.484
X6.219Y-3.357
X6.309Y-3.14
T4
X5.196Y-3.07
X5.296Y-3.07
T5
X4.8Y-2.9
X4.8Y-3.0
X4.8Y-3.1
X4.8Y-3.2
X4.8Y-3.3
X4.8Y-3.4
X4.8Y-3.5
X4.8Y-3.6
X4.8Y-3.7
X4.8Y-3.8
X4.9Y-2.9
X4.9Y-3.0
X4.9Y-3.1
X4.9Y-3.2
X4.9Y-3.3
X4.9Y-3.4
X4.9Y-3.5
X4.9Y-3.6
X4.9Y-3.7
X4.9Y-3.8
X5.059Y-3.6
X5.059Y-3.7
X5.159Y-3.6
X5.159Y-3.7
X5.909Y-3.5978
X6.009Y-3.5978
X6.092Y-3.274
X6.109Y-3.5978
X6.5Y-2.9
X6.5Y-3.0
X6.5Y-3.1
X6.5Y-3.2
X6.5Y-3.3
X6.5Y-3.4
X6.5Y-3.5
X6.5Y-3.6
X6.5Y-3.7
X6.5Y-3.8
X6.6Y-2.9
X6.6Y-3.0
X6.6Y-3.1
X6.6Y-3.2
X6.6Y-3.3
X6.6Y-3.4
X6.6Y-3.5
X6.6Y-3.6
X6.6Y-3.7
X6.6Y-3.8
T0
M30
