%TF.GenerationSoftware,KiCad,Pcbnew,(6.0.7)*%
%TF.CreationDate,2022-10-05T21:46:34-04:00*%
%TF.ProjectId,tifi_daughterboard,74696669-5f64-4617-9567-68746572626f,0*%
%TF.SameCoordinates,Original*%
%TF.FileFunction,Copper,L2,Bot*%
%TF.FilePolarity,Positive*%
%FSLAX46Y46*%
G04 Gerber Fmt 4.6, Leading zero omitted, Abs format (unit mm)*
G04 Created by KiCad (PCBNEW (6.0.7)) date 2022-10-05 21:46:34*
%MOMM*%
%LPD*%
G01*
G04 APERTURE LIST*
%TA.AperFunction,ComponentPad*%
%ADD10C,1.600000*%
%TD*%
%TA.AperFunction,ComponentPad*%
%ADD11R,1.700000X1.700000*%
%TD*%
%TA.AperFunction,ComponentPad*%
%ADD12O,1.700000X1.700000*%
%TD*%
%TA.AperFunction,TestPad*%
%ADD13C,1.500000*%
%TD*%
%TA.AperFunction,ViaPad*%
%ADD14C,0.711200*%
%TD*%
%TA.AperFunction,ViaPad*%
%ADD15C,0.609600*%
%TD*%
%TA.AperFunction,ViaPad*%
%ADD16C,0.508000*%
%TD*%
%TA.AperFunction,Conductor*%
%ADD17C,0.508000*%
%TD*%
%TA.AperFunction,Conductor*%
%ADD18C,0.152400*%
%TD*%
G04 APERTURE END LIST*
D10*
%TO.P,R7,1*%
%TO.N,LDR_OUT*%
X134518400Y-77978000D03*
%TO.P,R7,2*%
%TO.N,GND*%
X131978400Y-77978000D03*
%TD*%
D11*
%TO.P,J5,1,Pin_1*%
%TO.N,Net-(J5-Pad1)*%
X128498600Y-91440000D03*
D12*
%TO.P,J5,2,Pin_2*%
%TO.N,Net-(J5-Pad2)*%
X131038600Y-91440000D03*
%TO.P,J5,3,Pin_3*%
%TO.N,I2C_SCL*%
X128498600Y-93980000D03*
%TO.P,J5,4,Pin_4*%
%TO.N,I2C_SDA*%
X131038600Y-93980000D03*
%TD*%
D11*
%TO.P,J2,1,Pin_1*%
%TO.N,unconnected-(J2-Pad1)*%
X165100000Y-73660000D03*
D12*
%TO.P,J2,2,Pin_2*%
%TO.N,GND*%
X167640000Y-73660000D03*
%TO.P,J2,3,Pin_3*%
%TO.N,unconnected-(J2-Pad3)*%
X165100000Y-76200000D03*
%TO.P,J2,4,Pin_4*%
%TO.N,PIR_OUT*%
X167640000Y-76200000D03*
%TO.P,J2,5,Pin_5*%
%TO.N,unconnected-(J2-Pad5)*%
X165100000Y-78740000D03*
%TO.P,J2,6,Pin_6*%
%TO.N,unconnected-(J2-Pad6)*%
X167640000Y-78740000D03*
%TO.P,J2,7,Pin_7*%
%TO.N,unconnected-(J2-Pad7)*%
X165100000Y-81280000D03*
%TO.P,J2,8,Pin_8*%
%TO.N,unconnected-(J2-Pad8)*%
X167640000Y-81280000D03*
%TO.P,J2,9,Pin_9*%
%TO.N,unconnected-(J2-Pad9)*%
X165100000Y-83820000D03*
%TO.P,J2,10,Pin_10*%
%TO.N,unconnected-(J2-Pad10)*%
X167640000Y-83820000D03*
%TO.P,J2,11,Pin_11*%
%TO.N,unconnected-(J2-Pad11)*%
X165100000Y-86360000D03*
%TO.P,J2,12,Pin_12*%
%TO.N,unconnected-(J2-Pad12)*%
X167640000Y-86360000D03*
%TO.P,J2,13,Pin_13*%
%TO.N,unconnected-(J2-Pad13)*%
X165100000Y-88900000D03*
%TO.P,J2,14,Pin_14*%
%TO.N,unconnected-(J2-Pad14)*%
X167640000Y-88900000D03*
%TO.P,J2,15,Pin_15*%
%TO.N,unconnected-(J2-Pad15)*%
X165100000Y-91440000D03*
%TO.P,J2,16,Pin_16*%
%TO.N,LED_PWM*%
X167640000Y-91440000D03*
%TO.P,J2,17,Pin_17*%
%TO.N,unconnected-(J2-Pad17)*%
X165100000Y-93980000D03*
%TO.P,J2,18,Pin_18*%
%TO.N,unconnected-(J2-Pad18)*%
X167640000Y-93980000D03*
%TO.P,J2,19,Pin_19*%
%TO.N,unconnected-(J2-Pad19)*%
X165100000Y-96520000D03*
%TO.P,J2,20,Pin_20*%
%TO.N,unconnected-(J2-Pad20)*%
X167640000Y-96520000D03*
%TD*%
D11*
%TO.P,J1,1,Pin_1*%
%TO.N,+3.3V*%
X121920000Y-73660000D03*
D12*
%TO.P,J1,2,Pin_2*%
%TO.N,+5V*%
X124460000Y-73660000D03*
%TO.P,J1,3,Pin_3*%
%TO.N,unconnected-(J1-Pad3)*%
X121920000Y-76200000D03*
%TO.P,J1,4,Pin_4*%
%TO.N,GND*%
X124460000Y-76200000D03*
%TO.P,J1,5,Pin_5*%
%TO.N,unconnected-(J1-Pad5)*%
X121920000Y-78740000D03*
%TO.P,J1,6,Pin_6*%
%TO.N,unconnected-(J1-Pad6)*%
X124460000Y-78740000D03*
%TO.P,J1,7,Pin_7*%
%TO.N,unconnected-(J1-Pad7)*%
X121920000Y-81280000D03*
%TO.P,J1,8,Pin_8*%
%TO.N,LDR_OUT*%
X124460000Y-81280000D03*
%TO.P,J1,9,Pin_9*%
%TO.N,unconnected-(J1-Pad9)*%
X121920000Y-83820000D03*
%TO.P,J1,10,Pin_10*%
%TO.N,unconnected-(J1-Pad10)*%
X124460000Y-83820000D03*
%TO.P,J1,11,Pin_11*%
%TO.N,unconnected-(J1-Pad11)*%
X121920000Y-86360000D03*
%TO.P,J1,12,Pin_12*%
%TO.N,unconnected-(J1-Pad12)*%
X124460000Y-86360000D03*
%TO.P,J1,13,Pin_13*%
%TO.N,unconnected-(J1-Pad13)*%
X121920000Y-88900000D03*
%TO.P,J1,14,Pin_14*%
%TO.N,unconnected-(J1-Pad14)*%
X124460000Y-88900000D03*
%TO.P,J1,15,Pin_15*%
%TO.N,unconnected-(J1-Pad15)*%
X121920000Y-91440000D03*
%TO.P,J1,16,Pin_16*%
%TO.N,unconnected-(J1-Pad16)*%
X124460000Y-91440000D03*
%TO.P,J1,17,Pin_17*%
%TO.N,I2C_SCL*%
X121920000Y-93980000D03*
%TO.P,J1,18,Pin_18*%
%TO.N,unconnected-(J1-Pad18)*%
X124460000Y-93980000D03*
%TO.P,J1,19,Pin_19*%
%TO.N,I2C_SDA*%
X121920000Y-96520000D03*
%TO.P,J1,20,Pin_20*%
%TO.N,unconnected-(J1-Pad20)*%
X124460000Y-96520000D03*
%TD*%
D11*
%TO.P,J4,1,Pin_1*%
%TO.N,+5V*%
X150088600Y-91383400D03*
D12*
%TO.P,J4,2,Pin_2*%
%TO.N,PIR_OUT*%
X152628600Y-91383400D03*
%TO.P,J4,3,Pin_3*%
%TO.N,GND*%
X155168600Y-91383400D03*
%TD*%
D13*
%TO.P,TP1,1,1*%
%TO.N,Net-(Q1-Pad2)*%
X154736800Y-83159600D03*
%TD*%
D14*
%TO.N,GND*%
X144932400Y-81000600D03*
D15*
X131216400Y-99187000D03*
D14*
X154178000Y-72237600D03*
X157962600Y-85267800D03*
D15*
X138194400Y-95217600D03*
X138658600Y-89001600D03*
D16*
X136626600Y-87757000D03*
D14*
X145669000Y-85090000D03*
X160248600Y-79756000D03*
D15*
X134620000Y-88214200D03*
D14*
X140105250Y-92111800D03*
D16*
X136626600Y-88696800D03*
D14*
X155879800Y-88493600D03*
%TO.N,+5V*%
X128117600Y-72059800D03*
D15*
%TO.N,I2C_SCL*%
X128498600Y-96240600D03*
X140157200Y-98323400D03*
X138226800Y-98323400D03*
%TD*%
D17*
%TO.N,+5V*%
X126517400Y-73660000D02*
X124460000Y-73660000D01*
X128117600Y-72059800D02*
X126517400Y-73660000D01*
D18*
%TO.N,I2C_SCL*%
X128498600Y-93980000D02*
X128498600Y-96240600D01*
X138226800Y-98323400D02*
X140157200Y-98323400D01*
%TD*%
%TA.AperFunction,Conductor*%
%TO.N,GND*%
G36*
X172915621Y-70124502D02*
G01*
X172962114Y-70178158D01*
X172973500Y-70230500D01*
X172973500Y-101219500D01*
X172953498Y-101287621D01*
X172899842Y-101334114D01*
X172847500Y-101345500D01*
X116712500Y-101345500D01*
X116644379Y-101325498D01*
X116597886Y-101271842D01*
X116586500Y-101219500D01*
X116586500Y-98311973D01*
X137408434Y-98311973D01*
X137409121Y-98318980D01*
X137409121Y-98318983D01*
X137418767Y-98417357D01*
X137426239Y-98493564D01*
X137483833Y-98666699D01*
X137578354Y-98822771D01*
X137705103Y-98954023D01*
X137710995Y-98957878D01*
X137710999Y-98957882D01*
X137851885Y-99050075D01*
X137857781Y-99053933D01*
X137864385Y-99056389D01*
X137864387Y-99056390D01*
X137943290Y-99085734D01*
X138028800Y-99117535D01*
X138209660Y-99141667D01*
X138216671Y-99141029D01*
X138216675Y-99141029D01*
X138356380Y-99128314D01*
X138391371Y-99125129D01*
X138398073Y-99122951D01*
X138398075Y-99122951D01*
X138558205Y-99070922D01*
X138558208Y-99070921D01*
X138564904Y-99068745D01*
X138589752Y-99053933D01*
X138715580Y-98978925D01*
X138715582Y-98978924D01*
X138721632Y-98975317D01*
X138739941Y-98957882D01*
X138755723Y-98942854D01*
X138818848Y-98910362D01*
X138842614Y-98908100D01*
X139537672Y-98908100D01*
X139605793Y-98928102D01*
X139628309Y-98946573D01*
X139635503Y-98954023D01*
X139641395Y-98957878D01*
X139641399Y-98957882D01*
X139782285Y-99050075D01*
X139788181Y-99053933D01*
X139794785Y-99056389D01*
X139794787Y-99056390D01*
X139873690Y-99085734D01*
X139959200Y-99117535D01*
X140140060Y-99141667D01*
X140147071Y-99141029D01*
X140147075Y-99141029D01*
X140286780Y-99128314D01*
X140321771Y-99125129D01*
X140328473Y-99122951D01*
X140328475Y-99122951D01*
X140488605Y-99070922D01*
X140488608Y-99070921D01*
X140495304Y-99068745D01*
X140520152Y-99053933D01*
X140645977Y-98978927D01*
X140645980Y-98978925D01*
X140652032Y-98975317D01*
X140723339Y-98907412D01*
X140779062Y-98854348D01*
X140779064Y-98854345D01*
X140784166Y-98849487D01*
X140885139Y-98697510D01*
X140900138Y-98658025D01*
X140947433Y-98533522D01*
X140947434Y-98533517D01*
X140949933Y-98526939D01*
X140975327Y-98346252D01*
X140975646Y-98323400D01*
X140955307Y-98142075D01*
X140895301Y-97969761D01*
X140798611Y-97815024D01*
X140687092Y-97702724D01*
X140675004Y-97690551D01*
X140675000Y-97690548D01*
X140670041Y-97685554D01*
X140658857Y-97678456D01*
X140587744Y-97633327D01*
X140515983Y-97587786D01*
X140409290Y-97549794D01*
X140350727Y-97528940D01*
X140350725Y-97528939D01*
X140344093Y-97526578D01*
X140337107Y-97525745D01*
X140337103Y-97525744D01*
X140207526Y-97510294D01*
X140162914Y-97504974D01*
X140155911Y-97505710D01*
X140155910Y-97505710D01*
X140109675Y-97510570D01*
X139981451Y-97524046D01*
X139974783Y-97526316D01*
X139815390Y-97580578D01*
X139815387Y-97580579D01*
X139808723Y-97582848D01*
X139794554Y-97591565D01*
X139659313Y-97674765D01*
X139659311Y-97674767D01*
X139653314Y-97678456D01*
X139648283Y-97683382D01*
X139648280Y-97683385D01*
X139628532Y-97702724D01*
X139565867Y-97736094D01*
X139540375Y-97738700D01*
X138844866Y-97738700D01*
X138776745Y-97718698D01*
X138755460Y-97701483D01*
X138744607Y-97690554D01*
X138744603Y-97690551D01*
X138739641Y-97685554D01*
X138728457Y-97678456D01*
X138657344Y-97633327D01*
X138585583Y-97587786D01*
X138478890Y-97549794D01*
X138420327Y-97528940D01*
X138420325Y-97528939D01*
X138413693Y-97526578D01*
X138406707Y-97525745D01*
X138406703Y-97525744D01*
X138277126Y-97510294D01*
X138232514Y-97504974D01*
X138225511Y-97505710D01*
X138225510Y-97505710D01*
X138179275Y-97510570D01*
X138051051Y-97524046D01*
X138044383Y-97526316D01*
X137884990Y-97580578D01*
X137884987Y-97580579D01*
X137878323Y-97582848D01*
X137722914Y-97678456D01*
X137681820Y-97718698D01*
X137609853Y-97789174D01*
X137592550Y-97806118D01*
X137493708Y-97959490D01*
X137491299Y-97966110D01*
X137491297Y-97966113D01*
X137433710Y-98124332D01*
X137431302Y-98130949D01*
X137408434Y-98311973D01*
X116586500Y-98311973D01*
X116586500Y-96486695D01*
X120557251Y-96486695D01*
X120557548Y-96491848D01*
X120557548Y-96491851D01*
X120563011Y-96586590D01*
X120570110Y-96709715D01*
X120571247Y-96714761D01*
X120571248Y-96714767D01*
X120578070Y-96745037D01*
X120619222Y-96927639D01*
X120703266Y-97134616D01*
X120754019Y-97217438D01*
X120817291Y-97320688D01*
X120819987Y-97325088D01*
X120966250Y-97493938D01*
X121138126Y-97636632D01*
X121331000Y-97749338D01*
X121539692Y-97829030D01*
X121544760Y-97830061D01*
X121544763Y-97830062D01*
X121652017Y-97851883D01*
X121758597Y-97873567D01*
X121763772Y-97873757D01*
X121763774Y-97873757D01*
X121976673Y-97881564D01*
X121976677Y-97881564D01*
X121981837Y-97881753D01*
X121986957Y-97881097D01*
X121986959Y-97881097D01*
X122198288Y-97854025D01*
X122198289Y-97854025D01*
X122203416Y-97853368D01*
X122208366Y-97851883D01*
X122412429Y-97790661D01*
X122412434Y-97790659D01*
X122417384Y-97789174D01*
X122617994Y-97690896D01*
X122799860Y-97561173D01*
X122958096Y-97403489D01*
X123017594Y-97320689D01*
X123088453Y-97222077D01*
X123089776Y-97223028D01*
X123136645Y-97179857D01*
X123206580Y-97167625D01*
X123272026Y-97195144D01*
X123299875Y-97226994D01*
X123359987Y-97325088D01*
X123506250Y-97493938D01*
X123678126Y-97636632D01*
X123871000Y-97749338D01*
X124079692Y-97829030D01*
X124084760Y-97830061D01*
X124084763Y-97830062D01*
X124192017Y-97851883D01*
X124298597Y-97873567D01*
X124303772Y-97873757D01*
X124303774Y-97873757D01*
X124516673Y-97881564D01*
X124516677Y-97881564D01*
X124521837Y-97881753D01*
X124526957Y-97881097D01*
X124526959Y-97881097D01*
X124738288Y-97854025D01*
X124738289Y-97854025D01*
X124743416Y-97853368D01*
X124748366Y-97851883D01*
X124952429Y-97790661D01*
X124952434Y-97790659D01*
X124957384Y-97789174D01*
X125157994Y-97690896D01*
X125339860Y-97561173D01*
X125498096Y-97403489D01*
X125557594Y-97320689D01*
X125625435Y-97226277D01*
X125628453Y-97222077D01*
X125649320Y-97179857D01*
X125725136Y-97026453D01*
X125725137Y-97026451D01*
X125727430Y-97021811D01*
X125792370Y-96808069D01*
X125821529Y-96586590D01*
X125823156Y-96520000D01*
X125804852Y-96297361D01*
X125750431Y-96080702D01*
X125661354Y-95875840D01*
X125621906Y-95814862D01*
X125542822Y-95692617D01*
X125542820Y-95692614D01*
X125540014Y-95688277D01*
X125389670Y-95523051D01*
X125385619Y-95519852D01*
X125385615Y-95519848D01*
X125218414Y-95387800D01*
X125218410Y-95387798D01*
X125214359Y-95384598D01*
X125173053Y-95361796D01*
X125123084Y-95311364D01*
X125108312Y-95241921D01*
X125133428Y-95175516D01*
X125160780Y-95148909D01*
X125204603Y-95117650D01*
X125339860Y-95021173D01*
X125498096Y-94863489D01*
X125557594Y-94780689D01*
X125625435Y-94686277D01*
X125628453Y-94682077D01*
X125649320Y-94639857D01*
X125725136Y-94486453D01*
X125725137Y-94486451D01*
X125727430Y-94481811D01*
X125792370Y-94268069D01*
X125821529Y-94046590D01*
X125823156Y-93980000D01*
X125820418Y-93946695D01*
X127135851Y-93946695D01*
X127136148Y-93951848D01*
X127136148Y-93951851D01*
X127141611Y-94046590D01*
X127148710Y-94169715D01*
X127149847Y-94174761D01*
X127149848Y-94174767D01*
X127169719Y-94262939D01*
X127197822Y-94387639D01*
X127281866Y-94594616D01*
X127332619Y-94677438D01*
X127395891Y-94780688D01*
X127398587Y-94785088D01*
X127544850Y-94953938D01*
X127716726Y-95096632D01*
X127786804Y-95137582D01*
X127851470Y-95175370D01*
X127900194Y-95227009D01*
X127913900Y-95284158D01*
X127913900Y-95621829D01*
X127893898Y-95689950D01*
X127876056Y-95711854D01*
X127869384Y-95718387D01*
X127869379Y-95718394D01*
X127864350Y-95723318D01*
X127765508Y-95876690D01*
X127763099Y-95883310D01*
X127763097Y-95883313D01*
X127709196Y-96031406D01*
X127703102Y-96048149D01*
X127680234Y-96229173D01*
X127680921Y-96236180D01*
X127680921Y-96236183D01*
X127684208Y-96269707D01*
X127698039Y-96410764D01*
X127755633Y-96583899D01*
X127850154Y-96739971D01*
X127976903Y-96871223D01*
X127982795Y-96875078D01*
X127982799Y-96875082D01*
X128123685Y-96967275D01*
X128129581Y-96971133D01*
X128136185Y-96973589D01*
X128136187Y-96973590D01*
X128215090Y-97002934D01*
X128300600Y-97034735D01*
X128481460Y-97058867D01*
X128488471Y-97058229D01*
X128488475Y-97058229D01*
X128628180Y-97045514D01*
X128663171Y-97042329D01*
X128669873Y-97040151D01*
X128669875Y-97040151D01*
X128830005Y-96988122D01*
X128830008Y-96988121D01*
X128836704Y-96985945D01*
X128861552Y-96971133D01*
X128987377Y-96896127D01*
X128987380Y-96896125D01*
X128993432Y-96892517D01*
X129087498Y-96802939D01*
X129120462Y-96771548D01*
X129120464Y-96771545D01*
X129125566Y-96766687D01*
X129226539Y-96614710D01*
X129273209Y-96491851D01*
X129275168Y-96486695D01*
X163737251Y-96486695D01*
X163737548Y-96491848D01*
X163737548Y-96491851D01*
X163743011Y-96586590D01*
X163750110Y-96709715D01*
X163751247Y-96714761D01*
X163751248Y-96714767D01*
X163758070Y-96745037D01*
X163799222Y-96927639D01*
X163883266Y-97134616D01*
X163934019Y-97217438D01*
X163997291Y-97320688D01*
X163999987Y-97325088D01*
X164146250Y-97493938D01*
X164318126Y-97636632D01*
X164511000Y-97749338D01*
X164719692Y-97829030D01*
X164724760Y-97830061D01*
X164724763Y-97830062D01*
X164832017Y-97851883D01*
X164938597Y-97873567D01*
X164943772Y-97873757D01*
X164943774Y-97873757D01*
X165156673Y-97881564D01*
X165156677Y-97881564D01*
X165161837Y-97881753D01*
X165166957Y-97881097D01*
X165166959Y-97881097D01*
X165378288Y-97854025D01*
X165378289Y-97854025D01*
X165383416Y-97853368D01*
X165388366Y-97851883D01*
X165592429Y-97790661D01*
X165592434Y-97790659D01*
X165597384Y-97789174D01*
X165797994Y-97690896D01*
X165979860Y-97561173D01*
X166138096Y-97403489D01*
X166197594Y-97320689D01*
X166268453Y-97222077D01*
X166269776Y-97223028D01*
X166316645Y-97179857D01*
X166386580Y-97167625D01*
X166452026Y-97195144D01*
X166479875Y-97226994D01*
X166539987Y-97325088D01*
X166686250Y-97493938D01*
X166858126Y-97636632D01*
X167051000Y-97749338D01*
X167259692Y-97829030D01*
X167264760Y-97830061D01*
X167264763Y-97830062D01*
X167372017Y-97851883D01*
X167478597Y-97873567D01*
X167483772Y-97873757D01*
X167483774Y-97873757D01*
X167696673Y-97881564D01*
X167696677Y-97881564D01*
X167701837Y-97881753D01*
X167706957Y-97881097D01*
X167706959Y-97881097D01*
X167918288Y-97854025D01*
X167918289Y-97854025D01*
X167923416Y-97853368D01*
X167928366Y-97851883D01*
X168132429Y-97790661D01*
X168132434Y-97790659D01*
X168137384Y-97789174D01*
X168337994Y-97690896D01*
X168519860Y-97561173D01*
X168678096Y-97403489D01*
X168737594Y-97320689D01*
X168805435Y-97226277D01*
X168808453Y-97222077D01*
X168829320Y-97179857D01*
X168905136Y-97026453D01*
X168905137Y-97026451D01*
X168907430Y-97021811D01*
X168972370Y-96808069D01*
X169001529Y-96586590D01*
X169003156Y-96520000D01*
X168984852Y-96297361D01*
X168930431Y-96080702D01*
X168841354Y-95875840D01*
X168801906Y-95814862D01*
X168722822Y-95692617D01*
X168722820Y-95692614D01*
X168720014Y-95688277D01*
X168569670Y-95523051D01*
X168565619Y-95519852D01*
X168565615Y-95519848D01*
X168398414Y-95387800D01*
X168398410Y-95387798D01*
X168394359Y-95384598D01*
X168353053Y-95361796D01*
X168303084Y-95311364D01*
X168288312Y-95241921D01*
X168313428Y-95175516D01*
X168340780Y-95148909D01*
X168384603Y-95117650D01*
X168519860Y-95021173D01*
X168678096Y-94863489D01*
X168737594Y-94780689D01*
X168805435Y-94686277D01*
X168808453Y-94682077D01*
X168829320Y-94639857D01*
X168905136Y-94486453D01*
X168905137Y-94486451D01*
X168907430Y-94481811D01*
X168972370Y-94268069D01*
X169001529Y-94046590D01*
X169003156Y-93980000D01*
X168984852Y-93757361D01*
X168930431Y-93540702D01*
X168841354Y-93335840D01*
X168720014Y-93148277D01*
X168569670Y-92983051D01*
X168565619Y-92979852D01*
X168565615Y-92979848D01*
X168398414Y-92847800D01*
X168398410Y-92847798D01*
X168394359Y-92844598D01*
X168353053Y-92821796D01*
X168303084Y-92771364D01*
X168288312Y-92701921D01*
X168313428Y-92635516D01*
X168340780Y-92608909D01*
X168384603Y-92577650D01*
X168519860Y-92481173D01*
X168678096Y-92323489D01*
X168737594Y-92240689D01*
X168805435Y-92146277D01*
X168808453Y-92142077D01*
X168829320Y-92099857D01*
X168905136Y-91946453D01*
X168905137Y-91946451D01*
X168907430Y-91941811D01*
X168972370Y-91728069D01*
X169001529Y-91506590D01*
X169003156Y-91440000D01*
X168984852Y-91217361D01*
X168930431Y-91000702D01*
X168841354Y-90795840D01*
X168720014Y-90608277D01*
X168569670Y-90443051D01*
X168565619Y-90439852D01*
X168565615Y-90439848D01*
X168398414Y-90307800D01*
X168398410Y-90307798D01*
X168394359Y-90304598D01*
X168353053Y-90281796D01*
X168303084Y-90231364D01*
X168288312Y-90161921D01*
X168313428Y-90095516D01*
X168340780Y-90068909D01*
X168404350Y-90023565D01*
X168519860Y-89941173D01*
X168678096Y-89783489D01*
X168737594Y-89700689D01*
X168805435Y-89606277D01*
X168808453Y-89602077D01*
X168829320Y-89559857D01*
X168905136Y-89406453D01*
X168905137Y-89406451D01*
X168907430Y-89401811D01*
X168972370Y-89188069D01*
X169001529Y-88966590D01*
X169003156Y-88900000D01*
X168984852Y-88677361D01*
X168930431Y-88460702D01*
X168841354Y-88255840D01*
X168720014Y-88068277D01*
X168569670Y-87903051D01*
X168565619Y-87899852D01*
X168565615Y-87899848D01*
X168398414Y-87767800D01*
X168398410Y-87767798D01*
X168394359Y-87764598D01*
X168353053Y-87741796D01*
X168303084Y-87691364D01*
X168288312Y-87621921D01*
X168313428Y-87555516D01*
X168340780Y-87528909D01*
X168384603Y-87497650D01*
X168519860Y-87401173D01*
X168678096Y-87243489D01*
X168737594Y-87160689D01*
X168805435Y-87066277D01*
X168808453Y-87062077D01*
X168829320Y-87019857D01*
X168905136Y-86866453D01*
X168905137Y-86866451D01*
X168907430Y-86861811D01*
X168972370Y-86648069D01*
X169001529Y-86426590D01*
X169003156Y-86360000D01*
X168984852Y-86137361D01*
X168930431Y-85920702D01*
X168841354Y-85715840D01*
X168720014Y-85528277D01*
X168569670Y-85363051D01*
X168565619Y-85359852D01*
X168565615Y-85359848D01*
X168398414Y-85227800D01*
X168398410Y-85227798D01*
X168394359Y-85224598D01*
X168353053Y-85201796D01*
X168303084Y-85151364D01*
X168288312Y-85081921D01*
X168313428Y-85015516D01*
X168340780Y-84988909D01*
X168384603Y-84957650D01*
X168519860Y-84861173D01*
X168678096Y-84703489D01*
X168737594Y-84620689D01*
X168805435Y-84526277D01*
X168808453Y-84522077D01*
X168829320Y-84479857D01*
X168905136Y-84326453D01*
X168905137Y-84326451D01*
X168907430Y-84321811D01*
X168939900Y-84214940D01*
X168970865Y-84113023D01*
X168970865Y-84113021D01*
X168972370Y-84108069D01*
X169001529Y-83886590D01*
X169003156Y-83820000D01*
X168984852Y-83597361D01*
X168930431Y-83380702D01*
X168841354Y-83175840D01*
X168720014Y-82988277D01*
X168569670Y-82823051D01*
X168565619Y-82819852D01*
X168565615Y-82819848D01*
X168398414Y-82687800D01*
X168398410Y-82687798D01*
X168394359Y-82684598D01*
X168353053Y-82661796D01*
X168303084Y-82611364D01*
X168288312Y-82541921D01*
X168313428Y-82475516D01*
X168340780Y-82448909D01*
X168384603Y-82417650D01*
X168519860Y-82321173D01*
X168678096Y-82163489D01*
X168737594Y-82080689D01*
X168805435Y-81986277D01*
X168808453Y-81982077D01*
X168813900Y-81971057D01*
X168905136Y-81786453D01*
X168905137Y-81786451D01*
X168907430Y-81781811D01*
X168972370Y-81568069D01*
X169001529Y-81346590D01*
X169003156Y-81280000D01*
X168984852Y-81057361D01*
X168930431Y-80840702D01*
X168841354Y-80635840D01*
X168720014Y-80448277D01*
X168569670Y-80283051D01*
X168565619Y-80279852D01*
X168565615Y-80279848D01*
X168398414Y-80147800D01*
X168398410Y-80147798D01*
X168394359Y-80144598D01*
X168353053Y-80121796D01*
X168303084Y-80071364D01*
X168288312Y-80001921D01*
X168313428Y-79935516D01*
X168340780Y-79908909D01*
X168384603Y-79877650D01*
X168519860Y-79781173D01*
X168678096Y-79623489D01*
X168737594Y-79540689D01*
X168805435Y-79446277D01*
X168808453Y-79442077D01*
X168829320Y-79399857D01*
X168905136Y-79246453D01*
X168905137Y-79246451D01*
X168907430Y-79241811D01*
X168961146Y-79065012D01*
X168970865Y-79033023D01*
X168970865Y-79033021D01*
X168972370Y-79028069D01*
X169001529Y-78806590D01*
X169003156Y-78740000D01*
X168984852Y-78517361D01*
X168930431Y-78300702D01*
X168841354Y-78095840D01*
X168773408Y-77990812D01*
X168722822Y-77912617D01*
X168722820Y-77912614D01*
X168720014Y-77908277D01*
X168569670Y-77743051D01*
X168565619Y-77739852D01*
X168565615Y-77739848D01*
X168398414Y-77607800D01*
X168398410Y-77607798D01*
X168394359Y-77604598D01*
X168353053Y-77581796D01*
X168303084Y-77531364D01*
X168288312Y-77461921D01*
X168313428Y-77395516D01*
X168340780Y-77368909D01*
X168400251Y-77326489D01*
X168519860Y-77241173D01*
X168678096Y-77083489D01*
X168737594Y-77000689D01*
X168805435Y-76906277D01*
X168808453Y-76902077D01*
X168813934Y-76890988D01*
X168905136Y-76706453D01*
X168905137Y-76706451D01*
X168907430Y-76701811D01*
X168972370Y-76488069D01*
X169001529Y-76266590D01*
X169003156Y-76200000D01*
X168984852Y-75977361D01*
X168930431Y-75760702D01*
X168841354Y-75555840D01*
X168720014Y-75368277D01*
X168569670Y-75203051D01*
X168565619Y-75199852D01*
X168565615Y-75199848D01*
X168398414Y-75067800D01*
X168398410Y-75067798D01*
X168394359Y-75064598D01*
X168352569Y-75041529D01*
X168302598Y-74991097D01*
X168287826Y-74921654D01*
X168312942Y-74855248D01*
X168340294Y-74828641D01*
X168515328Y-74703792D01*
X168523200Y-74697139D01*
X168674052Y-74546812D01*
X168680730Y-74538965D01*
X168805003Y-74366020D01*
X168810313Y-74357183D01*
X168904670Y-74166267D01*
X168908469Y-74156672D01*
X168970377Y-73952910D01*
X168972555Y-73942837D01*
X168973986Y-73931962D01*
X168971775Y-73917778D01*
X168958617Y-73914000D01*
X167512000Y-73914000D01*
X167443879Y-73893998D01*
X167397386Y-73840342D01*
X167386000Y-73788000D01*
X167386000Y-73387885D01*
X167894000Y-73387885D01*
X167898475Y-73403124D01*
X167899865Y-73404329D01*
X167907548Y-73406000D01*
X168958344Y-73406000D01*
X168971875Y-73402027D01*
X168973180Y-73392947D01*
X168931214Y-73225875D01*
X168927894Y-73216124D01*
X168842972Y-73020814D01*
X168838105Y-73011739D01*
X168722426Y-72832926D01*
X168716136Y-72824757D01*
X168572806Y-72667240D01*
X168565273Y-72660215D01*
X168398139Y-72528222D01*
X168389552Y-72522517D01*
X168203117Y-72419599D01*
X168193705Y-72415369D01*
X167992959Y-72344280D01*
X167982988Y-72341646D01*
X167911837Y-72328972D01*
X167898540Y-72330432D01*
X167894000Y-72344989D01*
X167894000Y-73387885D01*
X167386000Y-73387885D01*
X167386000Y-72343102D01*
X167382082Y-72329758D01*
X167367806Y-72327771D01*
X167329324Y-72333660D01*
X167319288Y-72336051D01*
X167116868Y-72402212D01*
X167107359Y-72406209D01*
X166918463Y-72504542D01*
X166909738Y-72510036D01*
X166739433Y-72637905D01*
X166731726Y-72644748D01*
X166654478Y-72725584D01*
X166592954Y-72761014D01*
X166522042Y-72757557D01*
X166464255Y-72716311D01*
X166445402Y-72682763D01*
X166403767Y-72571703D01*
X166400615Y-72563295D01*
X166313261Y-72446739D01*
X166196705Y-72359385D01*
X166060316Y-72308255D01*
X165998134Y-72301500D01*
X164201866Y-72301500D01*
X164139684Y-72308255D01*
X164003295Y-72359385D01*
X163886739Y-72446739D01*
X163799385Y-72563295D01*
X163748255Y-72699684D01*
X163741500Y-72761866D01*
X163741500Y-74558134D01*
X163748255Y-74620316D01*
X163799385Y-74756705D01*
X163886739Y-74873261D01*
X164003295Y-74960615D01*
X164011704Y-74963767D01*
X164011705Y-74963768D01*
X164120451Y-75004535D01*
X164177216Y-75047176D01*
X164201916Y-75113738D01*
X164186709Y-75183087D01*
X164167316Y-75209568D01*
X164040629Y-75342138D01*
X163914743Y-75526680D01*
X163820688Y-75729305D01*
X163760989Y-75944570D01*
X163737251Y-76166695D01*
X163737548Y-76171848D01*
X163737548Y-76171851D01*
X163743011Y-76266590D01*
X163750110Y-76389715D01*
X163751247Y-76394761D01*
X163751248Y-76394767D01*
X163764597Y-76454000D01*
X163799222Y-76607639D01*
X163883266Y-76814616D01*
X163923286Y-76879923D01*
X163997291Y-77000688D01*
X163999987Y-77005088D01*
X164146250Y-77173938D01*
X164318126Y-77316632D01*
X164388595Y-77357811D01*
X164391445Y-77359476D01*
X164440169Y-77411114D01*
X164453240Y-77480897D01*
X164426509Y-77546669D01*
X164386055Y-77580027D01*
X164373607Y-77586507D01*
X164369474Y-77589610D01*
X164369471Y-77589612D01*
X164337533Y-77613592D01*
X164194965Y-77720635D01*
X164040629Y-77882138D01*
X163914743Y-78066680D01*
X163899003Y-78100590D01*
X163847566Y-78211402D01*
X163820688Y-78269305D01*
X163760989Y-78484570D01*
X163737251Y-78706695D01*
X163737548Y-78711848D01*
X163737548Y-78711851D01*
X163744141Y-78826197D01*
X163750110Y-78929715D01*
X163751247Y-78934761D01*
X163751248Y-78934767D01*
X163761510Y-78980301D01*
X163799222Y-79147639D01*
X163883266Y-79354616D01*
X163934019Y-79437438D01*
X163997291Y-79540688D01*
X163999987Y-79545088D01*
X164146250Y-79713938D01*
X164318126Y-79856632D01*
X164388595Y-79897811D01*
X164391445Y-79899476D01*
X164440169Y-79951114D01*
X164453240Y-80020897D01*
X164426509Y-80086669D01*
X164386055Y-80120027D01*
X164373607Y-80126507D01*
X164369474Y-80129610D01*
X164369471Y-80129612D01*
X164345247Y-80147800D01*
X164194965Y-80260635D01*
X164040629Y-80422138D01*
X163914743Y-80606680D01*
X163820688Y-80809305D01*
X163760989Y-81024570D01*
X163737251Y-81246695D01*
X163737548Y-81251848D01*
X163737548Y-81251851D01*
X163743011Y-81346590D01*
X163750110Y-81469715D01*
X163751247Y-81474761D01*
X163751248Y-81474767D01*
X163771119Y-81562939D01*
X163799222Y-81687639D01*
X163883266Y-81894616D01*
X163930109Y-81971057D01*
X163997291Y-82080688D01*
X163999987Y-82085088D01*
X164146250Y-82253938D01*
X164318126Y-82396632D01*
X164388595Y-82437811D01*
X164391445Y-82439476D01*
X164440169Y-82491114D01*
X164453240Y-82560897D01*
X164426509Y-82626669D01*
X164386055Y-82660027D01*
X164373607Y-82666507D01*
X164369474Y-82669610D01*
X164369471Y-82669612D01*
X164285266Y-82732835D01*
X164194965Y-82800635D01*
X164040629Y-82962138D01*
X163914743Y-83146680D01*
X163820688Y-83349305D01*
X163760989Y-83564570D01*
X163737251Y-83786695D01*
X163737548Y-83791848D01*
X163737548Y-83791851D01*
X163748139Y-83975535D01*
X163750110Y-84009715D01*
X163751247Y-84014761D01*
X163751248Y-84014767D01*
X163771119Y-84102939D01*
X163799222Y-84227639D01*
X163848153Y-84348143D01*
X163878512Y-84422907D01*
X163883266Y-84434616D01*
X163934019Y-84517438D01*
X163997291Y-84620688D01*
X163999987Y-84625088D01*
X164146250Y-84793938D01*
X164318126Y-84936632D01*
X164388595Y-84977811D01*
X164391445Y-84979476D01*
X164440169Y-85031114D01*
X164453240Y-85100897D01*
X164426509Y-85166669D01*
X164386055Y-85200027D01*
X164373607Y-85206507D01*
X164369474Y-85209610D01*
X164369471Y-85209612D01*
X164345247Y-85227800D01*
X164194965Y-85340635D01*
X164040629Y-85502138D01*
X163914743Y-85686680D01*
X163820688Y-85889305D01*
X163760989Y-86104570D01*
X163737251Y-86326695D01*
X163737548Y-86331848D01*
X163737548Y-86331851D01*
X163743011Y-86426590D01*
X163750110Y-86549715D01*
X163751247Y-86554761D01*
X163751248Y-86554767D01*
X163771119Y-86642939D01*
X163799222Y-86767639D01*
X163883266Y-86974616D01*
X163934019Y-87057438D01*
X163997291Y-87160688D01*
X163999987Y-87165088D01*
X164146250Y-87333938D01*
X164318126Y-87476632D01*
X164388595Y-87517811D01*
X164391445Y-87519476D01*
X164440169Y-87571114D01*
X164453240Y-87640897D01*
X164426509Y-87706669D01*
X164386055Y-87740027D01*
X164373607Y-87746507D01*
X164369474Y-87749610D01*
X164369471Y-87749612D01*
X164345247Y-87767800D01*
X164194965Y-87880635D01*
X164040629Y-88042138D01*
X163914743Y-88226680D01*
X163820688Y-88429305D01*
X163760989Y-88644570D01*
X163737251Y-88866695D01*
X163737548Y-88871848D01*
X163737548Y-88871851D01*
X163743011Y-88966590D01*
X163750110Y-89089715D01*
X163751247Y-89094761D01*
X163751248Y-89094767D01*
X163771119Y-89182939D01*
X163799222Y-89307639D01*
X163883266Y-89514616D01*
X163934019Y-89597438D01*
X163997291Y-89700688D01*
X163999987Y-89705088D01*
X164146250Y-89873938D01*
X164318126Y-90016632D01*
X164343835Y-90031655D01*
X164391445Y-90059476D01*
X164440169Y-90111114D01*
X164453240Y-90180897D01*
X164426509Y-90246669D01*
X164386055Y-90280027D01*
X164373607Y-90286507D01*
X164369474Y-90289610D01*
X164369471Y-90289612D01*
X164199100Y-90417530D01*
X164194965Y-90420635D01*
X164176605Y-90439848D01*
X164065296Y-90556326D01*
X164040629Y-90582138D01*
X163914743Y-90766680D01*
X163899003Y-90800590D01*
X163829986Y-90949275D01*
X163820688Y-90969305D01*
X163760989Y-91184570D01*
X163737251Y-91406695D01*
X163737548Y-91411848D01*
X163737548Y-91411851D01*
X163743011Y-91506590D01*
X163750110Y-91629715D01*
X163751247Y-91634761D01*
X163751248Y-91634767D01*
X163771119Y-91722939D01*
X163799222Y-91847639D01*
X163837461Y-91941811D01*
X163878453Y-92042762D01*
X163883266Y-92054616D01*
X163934019Y-92137438D01*
X163997291Y-92240688D01*
X163999987Y-92245088D01*
X164146250Y-92413938D01*
X164318126Y-92556632D01*
X164374341Y-92589481D01*
X164391445Y-92599476D01*
X164440169Y-92651114D01*
X164453240Y-92720897D01*
X164426509Y-92786669D01*
X164386055Y-92820027D01*
X164373607Y-92826507D01*
X164369474Y-92829610D01*
X164369471Y-92829612D01*
X164245567Y-92922642D01*
X164194965Y-92960635D01*
X164040629Y-93122138D01*
X163914743Y-93306680D01*
X163820688Y-93509305D01*
X163760989Y-93724570D01*
X163737251Y-93946695D01*
X163737548Y-93951848D01*
X163737548Y-93951851D01*
X163743011Y-94046590D01*
X163750110Y-94169715D01*
X163751247Y-94174761D01*
X163751248Y-94174767D01*
X163771119Y-94262939D01*
X163799222Y-94387639D01*
X163883266Y-94594616D01*
X163934019Y-94677438D01*
X163997291Y-94780688D01*
X163999987Y-94785088D01*
X164146250Y-94953938D01*
X164318126Y-95096632D01*
X164388595Y-95137811D01*
X164391445Y-95139476D01*
X164440169Y-95191114D01*
X164453240Y-95260897D01*
X164426509Y-95326669D01*
X164386055Y-95360027D01*
X164373607Y-95366507D01*
X164369474Y-95369610D01*
X164369471Y-95369612D01*
X164345247Y-95387800D01*
X164194965Y-95500635D01*
X164040629Y-95662138D01*
X164037720Y-95666403D01*
X164037714Y-95666411D01*
X163998895Y-95723318D01*
X163914743Y-95846680D01*
X163820688Y-96049305D01*
X163760989Y-96264570D01*
X163737251Y-96486695D01*
X129275168Y-96486695D01*
X129288833Y-96450722D01*
X129288834Y-96450717D01*
X129291333Y-96444139D01*
X129311236Y-96302522D01*
X129316176Y-96267375D01*
X129316176Y-96267370D01*
X129316727Y-96263452D01*
X129317046Y-96240600D01*
X129296707Y-96059275D01*
X129236701Y-95886961D01*
X129140011Y-95732224D01*
X129119894Y-95711966D01*
X129086087Y-95649535D01*
X129083300Y-95623182D01*
X129083300Y-95284979D01*
X129103302Y-95216858D01*
X129153868Y-95171827D01*
X129191959Y-95153167D01*
X129191962Y-95153165D01*
X129196594Y-95150896D01*
X129378460Y-95021173D01*
X129536696Y-94863489D01*
X129596194Y-94780689D01*
X129667053Y-94682077D01*
X129668376Y-94683028D01*
X129715245Y-94639857D01*
X129785180Y-94627625D01*
X129850626Y-94655144D01*
X129878475Y-94686994D01*
X129938587Y-94785088D01*
X130084850Y-94953938D01*
X130256726Y-95096632D01*
X130449600Y-95209338D01*
X130454425Y-95211180D01*
X130454426Y-95211181D01*
X130527212Y-95238975D01*
X130658292Y-95289030D01*
X130663360Y-95290061D01*
X130663363Y-95290062D01*
X130768066Y-95311364D01*
X130877197Y-95333567D01*
X130882372Y-95333757D01*
X130882374Y-95333757D01*
X131095273Y-95341564D01*
X131095277Y-95341564D01*
X131100437Y-95341753D01*
X131105557Y-95341097D01*
X131105559Y-95341097D01*
X131316888Y-95314025D01*
X131316889Y-95314025D01*
X131322016Y-95313368D01*
X131328696Y-95311364D01*
X131531029Y-95250661D01*
X131531034Y-95250659D01*
X131535984Y-95249174D01*
X131736594Y-95150896D01*
X131918460Y-95021173D01*
X132076696Y-94863489D01*
X132136194Y-94780689D01*
X132204035Y-94686277D01*
X132207053Y-94682077D01*
X132227920Y-94639857D01*
X132303736Y-94486453D01*
X132303737Y-94486451D01*
X132306030Y-94481811D01*
X132370970Y-94268069D01*
X132400129Y-94046590D01*
X132401756Y-93980000D01*
X132383452Y-93757361D01*
X132329031Y-93540702D01*
X132239954Y-93335840D01*
X132118614Y-93148277D01*
X131968270Y-92983051D01*
X131964219Y-92979852D01*
X131964215Y-92979848D01*
X131797014Y-92847800D01*
X131797010Y-92847798D01*
X131792959Y-92844598D01*
X131751653Y-92821796D01*
X131701684Y-92771364D01*
X131686912Y-92701921D01*
X131712028Y-92635516D01*
X131739380Y-92608909D01*
X131783203Y-92577650D01*
X131918460Y-92481173D01*
X132076696Y-92323489D01*
X132106844Y-92281534D01*
X148730100Y-92281534D01*
X148736855Y-92343716D01*
X148787985Y-92480105D01*
X148875339Y-92596661D01*
X148991895Y-92684015D01*
X149128284Y-92735145D01*
X149190466Y-92741900D01*
X150986734Y-92741900D01*
X151048916Y-92735145D01*
X151185305Y-92684015D01*
X151301861Y-92596661D01*
X151389215Y-92480105D01*
X151411399Y-92420929D01*
X151433198Y-92362782D01*
X151475840Y-92306018D01*
X151542402Y-92281318D01*
X151611750Y-92296526D01*
X151646417Y-92324514D01*
X151674850Y-92357338D01*
X151846726Y-92500032D01*
X152039600Y-92612738D01*
X152248292Y-92692430D01*
X152253360Y-92693461D01*
X152253363Y-92693462D01*
X152343483Y-92711797D01*
X152467197Y-92736967D01*
X152472372Y-92737157D01*
X152472374Y-92737157D01*
X152685273Y-92744964D01*
X152685277Y-92744964D01*
X152690437Y-92745153D01*
X152695557Y-92744497D01*
X152695559Y-92744497D01*
X152906888Y-92717425D01*
X152906889Y-92717425D01*
X152912016Y-92716768D01*
X152916966Y-92715283D01*
X153121029Y-92654061D01*
X153121034Y-92654059D01*
X153125984Y-92652574D01*
X153326594Y-92554296D01*
X153508460Y-92424573D01*
X153540686Y-92392460D01*
X153609898Y-92323489D01*
X153666696Y-92266889D01*
X153797053Y-92085477D01*
X153798240Y-92086330D01*
X153845560Y-92042762D01*
X153915497Y-92030545D01*
X153980938Y-92058078D01*
X154008766Y-92089911D01*
X154066294Y-92183788D01*
X154072377Y-92192099D01*
X154211813Y-92353067D01*
X154219180Y-92360283D01*
X154383034Y-92496316D01*
X154391481Y-92502231D01*
X154575356Y-92609679D01*
X154584642Y-92614129D01*
X154783601Y-92690103D01*
X154793499Y-92692979D01*
X154896850Y-92714006D01*
X154910899Y-92712810D01*
X154914600Y-92702465D01*
X154914600Y-92701917D01*
X155422600Y-92701917D01*
X155426664Y-92715759D01*
X155440078Y-92717793D01*
X155446784Y-92716934D01*
X155456862Y-92714792D01*
X155660855Y-92653591D01*
X155670442Y-92649833D01*
X155861695Y-92556139D01*
X155870545Y-92550864D01*
X156043928Y-92427192D01*
X156051800Y-92420539D01*
X156202652Y-92270212D01*
X156209330Y-92262365D01*
X156333603Y-92089420D01*
X156338913Y-92080583D01*
X156433270Y-91889667D01*
X156437069Y-91880072D01*
X156498977Y-91676310D01*
X156501155Y-91666237D01*
X156502586Y-91655362D01*
X156500375Y-91641178D01*
X156487217Y-91637400D01*
X155440715Y-91637400D01*
X155425476Y-91641875D01*
X155424271Y-91643265D01*
X155422600Y-91650948D01*
X155422600Y-92701917D01*
X154914600Y-92701917D01*
X154914600Y-91111285D01*
X155422600Y-91111285D01*
X155427075Y-91126524D01*
X155428465Y-91127729D01*
X155436148Y-91129400D01*
X156486944Y-91129400D01*
X156500475Y-91125427D01*
X156501780Y-91116347D01*
X156459814Y-90949275D01*
X156456494Y-90939524D01*
X156371572Y-90744214D01*
X156366705Y-90735139D01*
X156251026Y-90556326D01*
X156244736Y-90548157D01*
X156101406Y-90390640D01*
X156093873Y-90383615D01*
X155926739Y-90251622D01*
X155918152Y-90245917D01*
X155731717Y-90142999D01*
X155722305Y-90138769D01*
X155521559Y-90067680D01*
X155511588Y-90065046D01*
X155440437Y-90052372D01*
X155427140Y-90053832D01*
X155422600Y-90068389D01*
X155422600Y-91111285D01*
X154914600Y-91111285D01*
X154914600Y-90066502D01*
X154910682Y-90053158D01*
X154896406Y-90051171D01*
X154857924Y-90057060D01*
X154847888Y-90059451D01*
X154645468Y-90125612D01*
X154635959Y-90129609D01*
X154447063Y-90227942D01*
X154438338Y-90233436D01*
X154268033Y-90361305D01*
X154260326Y-90368148D01*
X154113190Y-90522117D01*
X154106709Y-90530122D01*
X154002098Y-90683474D01*
X153947187Y-90728476D01*
X153876662Y-90736647D01*
X153812915Y-90705393D01*
X153792218Y-90680909D01*
X153711422Y-90556017D01*
X153711420Y-90556014D01*
X153708614Y-90551677D01*
X153558270Y-90386451D01*
X153554219Y-90383252D01*
X153554215Y-90383248D01*
X153387014Y-90251200D01*
X153387010Y-90251198D01*
X153382959Y-90247998D01*
X153352827Y-90231364D01*
X153270191Y-90185747D01*
X153187389Y-90140038D01*
X153182520Y-90138314D01*
X153182516Y-90138312D01*
X152981687Y-90067195D01*
X152981683Y-90067194D01*
X152976812Y-90065469D01*
X152971719Y-90064562D01*
X152971716Y-90064561D01*
X152761973Y-90027200D01*
X152761967Y-90027199D01*
X152756884Y-90026294D01*
X152683052Y-90025392D01*
X152538681Y-90023628D01*
X152538679Y-90023628D01*
X152533511Y-90023565D01*
X152312691Y-90057355D01*
X152100356Y-90126757D01*
X152032807Y-90161921D01*
X151908293Y-90226739D01*
X151902207Y-90229907D01*
X151898074Y-90233010D01*
X151898071Y-90233012D01*
X151727700Y-90360930D01*
X151723565Y-90364035D01*
X151648056Y-90443051D01*
X151642883Y-90448464D01*
X151581359Y-90483894D01*
X151510446Y-90480437D01*
X151452660Y-90439191D01*
X151433807Y-90405643D01*
X151392367Y-90295103D01*
X151389215Y-90286695D01*
X151301861Y-90170139D01*
X151185305Y-90082785D01*
X151048916Y-90031655D01*
X150986734Y-90024900D01*
X149190466Y-90024900D01*
X149128284Y-90031655D01*
X148991895Y-90082785D01*
X148875339Y-90170139D01*
X148787985Y-90286695D01*
X148736855Y-90423084D01*
X148730100Y-90485266D01*
X148730100Y-92281534D01*
X132106844Y-92281534D01*
X132136194Y-92240689D01*
X132204035Y-92146277D01*
X132207053Y-92142077D01*
X132227920Y-92099857D01*
X132303736Y-91946453D01*
X132303737Y-91946451D01*
X132306030Y-91941811D01*
X132370970Y-91728069D01*
X132400129Y-91506590D01*
X132401756Y-91440000D01*
X132383452Y-91217361D01*
X132329031Y-91000702D01*
X132239954Y-90795840D01*
X132118614Y-90608277D01*
X131968270Y-90443051D01*
X131964219Y-90439852D01*
X131964215Y-90439848D01*
X131797014Y-90307800D01*
X131797010Y-90307798D01*
X131792959Y-90304598D01*
X131597389Y-90196638D01*
X131592520Y-90194914D01*
X131592516Y-90194912D01*
X131391687Y-90123795D01*
X131391683Y-90123794D01*
X131386812Y-90122069D01*
X131381719Y-90121162D01*
X131381716Y-90121161D01*
X131171973Y-90083800D01*
X131171967Y-90083799D01*
X131166884Y-90082894D01*
X131093052Y-90081992D01*
X130948681Y-90080228D01*
X130948679Y-90080228D01*
X130943511Y-90080165D01*
X130722691Y-90113955D01*
X130510356Y-90183357D01*
X130480043Y-90199137D01*
X130390180Y-90245917D01*
X130312207Y-90286507D01*
X130308074Y-90289610D01*
X130308071Y-90289612D01*
X130137700Y-90417530D01*
X130133565Y-90420635D01*
X130075049Y-90481869D01*
X130052883Y-90505064D01*
X129991359Y-90540494D01*
X129920446Y-90537037D01*
X129862660Y-90495791D01*
X129843807Y-90462243D01*
X129802367Y-90351703D01*
X129799215Y-90343295D01*
X129711861Y-90226739D01*
X129595305Y-90139385D01*
X129458916Y-90088255D01*
X129396734Y-90081500D01*
X127600466Y-90081500D01*
X127538284Y-90088255D01*
X127401895Y-90139385D01*
X127285339Y-90226739D01*
X127197985Y-90343295D01*
X127146855Y-90479684D01*
X127140100Y-90541866D01*
X127140100Y-92338134D01*
X127146855Y-92400316D01*
X127197985Y-92536705D01*
X127285339Y-92653261D01*
X127319187Y-92678629D01*
X127370298Y-92716934D01*
X127401895Y-92740615D01*
X127410304Y-92743767D01*
X127410305Y-92743768D01*
X127519051Y-92784535D01*
X127575816Y-92827176D01*
X127600516Y-92893738D01*
X127585309Y-92963087D01*
X127565916Y-92989568D01*
X127439229Y-93122138D01*
X127313343Y-93306680D01*
X127219288Y-93509305D01*
X127159589Y-93724570D01*
X127135851Y-93946695D01*
X125820418Y-93946695D01*
X125804852Y-93757361D01*
X125750431Y-93540702D01*
X125661354Y-93335840D01*
X125540014Y-93148277D01*
X125389670Y-92983051D01*
X125385619Y-92979852D01*
X125385615Y-92979848D01*
X125218414Y-92847800D01*
X125218410Y-92847798D01*
X125214359Y-92844598D01*
X125173053Y-92821796D01*
X125123084Y-92771364D01*
X125108312Y-92701921D01*
X125133428Y-92635516D01*
X125160780Y-92608909D01*
X125204603Y-92577650D01*
X125339860Y-92481173D01*
X125498096Y-92323489D01*
X125557594Y-92240689D01*
X125625435Y-92146277D01*
X125628453Y-92142077D01*
X125649320Y-92099857D01*
X125725136Y-91946453D01*
X125725137Y-91946451D01*
X125727430Y-91941811D01*
X125792370Y-91728069D01*
X125821529Y-91506590D01*
X125823156Y-91440000D01*
X125804852Y-91217361D01*
X125750431Y-91000702D01*
X125661354Y-90795840D01*
X125540014Y-90608277D01*
X125389670Y-90443051D01*
X125385619Y-90439852D01*
X125385615Y-90439848D01*
X125218414Y-90307800D01*
X125218410Y-90307798D01*
X125214359Y-90304598D01*
X125173053Y-90281796D01*
X125123084Y-90231364D01*
X125108312Y-90161921D01*
X125133428Y-90095516D01*
X125160780Y-90068909D01*
X125224350Y-90023565D01*
X125339860Y-89941173D01*
X125498096Y-89783489D01*
X125557594Y-89700689D01*
X125625435Y-89606277D01*
X125628453Y-89602077D01*
X125649320Y-89559857D01*
X125725136Y-89406453D01*
X125725137Y-89406451D01*
X125727430Y-89401811D01*
X125792370Y-89188069D01*
X125821529Y-88966590D01*
X125823156Y-88900000D01*
X125804852Y-88677361D01*
X125750431Y-88460702D01*
X125661354Y-88255840D01*
X125540014Y-88068277D01*
X125389670Y-87903051D01*
X125385619Y-87899852D01*
X125385615Y-87899848D01*
X125218414Y-87767800D01*
X125218410Y-87767798D01*
X125214359Y-87764598D01*
X125173053Y-87741796D01*
X125123084Y-87691364D01*
X125108312Y-87621921D01*
X125133428Y-87555516D01*
X125160780Y-87528909D01*
X125204603Y-87497650D01*
X125339860Y-87401173D01*
X125498096Y-87243489D01*
X125557594Y-87160689D01*
X125625435Y-87066277D01*
X125628453Y-87062077D01*
X125649320Y-87019857D01*
X125725136Y-86866453D01*
X125725137Y-86866451D01*
X125727430Y-86861811D01*
X125792370Y-86648069D01*
X125821529Y-86426590D01*
X125823156Y-86360000D01*
X125804852Y-86137361D01*
X125750431Y-85920702D01*
X125661354Y-85715840D01*
X125540014Y-85528277D01*
X125389670Y-85363051D01*
X125385619Y-85359852D01*
X125385615Y-85359848D01*
X125218414Y-85227800D01*
X125218410Y-85227798D01*
X125214359Y-85224598D01*
X125173053Y-85201796D01*
X125123084Y-85151364D01*
X125108312Y-85081921D01*
X125133428Y-85015516D01*
X125160780Y-84988909D01*
X125204603Y-84957650D01*
X125339860Y-84861173D01*
X125498096Y-84703489D01*
X125557594Y-84620689D01*
X125625435Y-84526277D01*
X125628453Y-84522077D01*
X125649320Y-84479857D01*
X125725136Y-84326453D01*
X125725137Y-84326451D01*
X125727430Y-84321811D01*
X125759900Y-84214940D01*
X125790865Y-84113023D01*
X125790865Y-84113021D01*
X125792370Y-84108069D01*
X125821529Y-83886590D01*
X125823156Y-83820000D01*
X125804852Y-83597361D01*
X125750431Y-83380702D01*
X125661354Y-83175840D01*
X125650848Y-83159600D01*
X153473493Y-83159600D01*
X153492685Y-83378971D01*
X153549680Y-83591676D01*
X153552005Y-83596661D01*
X153640418Y-83786266D01*
X153640421Y-83786271D01*
X153642744Y-83791253D01*
X153645900Y-83795760D01*
X153645901Y-83795762D01*
X153709500Y-83886590D01*
X153769051Y-83971638D01*
X153924762Y-84127349D01*
X154105146Y-84253656D01*
X154304724Y-84346720D01*
X154517429Y-84403715D01*
X154736800Y-84422907D01*
X154956171Y-84403715D01*
X155168876Y-84346720D01*
X155368454Y-84253656D01*
X155548838Y-84127349D01*
X155704549Y-83971638D01*
X155764101Y-83886590D01*
X155827699Y-83795762D01*
X155827700Y-83795760D01*
X155830856Y-83791253D01*
X155833179Y-83786271D01*
X155833182Y-83786266D01*
X155921595Y-83596661D01*
X155923920Y-83591676D01*
X155980915Y-83378971D01*
X156000107Y-83159600D01*
X155980915Y-82940229D01*
X155923920Y-82727524D01*
X155846221Y-82560897D01*
X155833182Y-82532934D01*
X155833179Y-82532929D01*
X155830856Y-82527947D01*
X155817826Y-82509338D01*
X155707708Y-82352073D01*
X155707706Y-82352070D01*
X155704549Y-82347562D01*
X155548838Y-82191851D01*
X155368454Y-82065544D01*
X155168876Y-81972480D01*
X154956171Y-81915485D01*
X154736800Y-81896293D01*
X154517429Y-81915485D01*
X154304724Y-81972480D01*
X154273599Y-81986994D01*
X154110134Y-82063218D01*
X154110129Y-82063221D01*
X154105147Y-82065544D01*
X154100640Y-82068700D01*
X154100638Y-82068701D01*
X153929273Y-82188692D01*
X153929270Y-82188694D01*
X153924762Y-82191851D01*
X153769051Y-82347562D01*
X153765894Y-82352070D01*
X153765892Y-82352073D01*
X153655774Y-82509338D01*
X153642744Y-82527947D01*
X153640421Y-82532929D01*
X153640418Y-82532934D01*
X153627379Y-82560897D01*
X153549680Y-82727524D01*
X153492685Y-82940229D01*
X153473493Y-83159600D01*
X125650848Y-83159600D01*
X125540014Y-82988277D01*
X125389670Y-82823051D01*
X125385619Y-82819852D01*
X125385615Y-82819848D01*
X125218414Y-82687800D01*
X125218410Y-82687798D01*
X125214359Y-82684598D01*
X125173053Y-82661796D01*
X125123084Y-82611364D01*
X125108312Y-82541921D01*
X125133428Y-82475516D01*
X125160780Y-82448909D01*
X125204603Y-82417650D01*
X125339860Y-82321173D01*
X125498096Y-82163489D01*
X125557594Y-82080689D01*
X125625435Y-81986277D01*
X125628453Y-81982077D01*
X125633900Y-81971057D01*
X125725136Y-81786453D01*
X125725137Y-81786451D01*
X125727430Y-81781811D01*
X125792370Y-81568069D01*
X125821529Y-81346590D01*
X125823156Y-81280000D01*
X125804852Y-81057361D01*
X125750431Y-80840702D01*
X125661354Y-80635840D01*
X125540014Y-80448277D01*
X125389670Y-80283051D01*
X125385619Y-80279852D01*
X125385615Y-80279848D01*
X125218414Y-80147800D01*
X125218410Y-80147798D01*
X125214359Y-80144598D01*
X125173053Y-80121796D01*
X125123084Y-80071364D01*
X125108312Y-80001921D01*
X125133428Y-79935516D01*
X125160780Y-79908909D01*
X125204603Y-79877650D01*
X125339860Y-79781173D01*
X125498096Y-79623489D01*
X125557594Y-79540689D01*
X125625435Y-79446277D01*
X125628453Y-79442077D01*
X125649320Y-79399857D01*
X125725136Y-79246453D01*
X125725137Y-79246451D01*
X125727430Y-79241811D01*
X125781146Y-79065012D01*
X125781435Y-79064062D01*
X131256893Y-79064062D01*
X131266189Y-79076077D01*
X131317394Y-79111931D01*
X131326889Y-79117414D01*
X131524347Y-79209490D01*
X131534639Y-79213236D01*
X131745088Y-79269625D01*
X131755881Y-79271528D01*
X131972925Y-79290517D01*
X131983875Y-79290517D01*
X132200919Y-79271528D01*
X132211712Y-79269625D01*
X132422161Y-79213236D01*
X132432453Y-79209490D01*
X132629911Y-79117414D01*
X132639406Y-79111931D01*
X132691448Y-79075491D01*
X132699824Y-79065012D01*
X132692756Y-79051566D01*
X131991212Y-78350022D01*
X131977268Y-78342408D01*
X131975435Y-78342539D01*
X131968820Y-78346790D01*
X131263323Y-79052287D01*
X131256893Y-79064062D01*
X125781435Y-79064062D01*
X125790865Y-79033023D01*
X125790865Y-79033021D01*
X125792370Y-79028069D01*
X125821529Y-78806590D01*
X125823156Y-78740000D01*
X125804852Y-78517361D01*
X125750431Y-78300702D01*
X125661354Y-78095840D01*
X125593408Y-77990812D01*
X125588662Y-77983475D01*
X130665883Y-77983475D01*
X130684872Y-78200519D01*
X130686775Y-78211312D01*
X130743164Y-78421761D01*
X130746910Y-78432053D01*
X130838986Y-78629511D01*
X130844469Y-78639006D01*
X130880909Y-78691048D01*
X130891388Y-78699424D01*
X130904834Y-78692356D01*
X131606378Y-77990812D01*
X131612756Y-77979132D01*
X132342808Y-77979132D01*
X132342939Y-77980965D01*
X132347190Y-77987580D01*
X133052687Y-78693077D01*
X133064462Y-78699507D01*
X133076477Y-78690211D01*
X133112331Y-78639006D01*
X133117814Y-78629511D01*
X133133929Y-78594951D01*
X133180846Y-78541666D01*
X133249123Y-78522205D01*
X133317083Y-78542747D01*
X133362319Y-78594951D01*
X133378551Y-78629762D01*
X133378554Y-78629767D01*
X133380877Y-78634749D01*
X133384034Y-78639257D01*
X133501202Y-78806590D01*
X133512202Y-78822300D01*
X133674100Y-78984198D01*
X133678608Y-78987355D01*
X133678611Y-78987357D01*
X133729428Y-79022939D01*
X133861651Y-79115523D01*
X133866633Y-79117846D01*
X133866638Y-79117849D01*
X134063165Y-79209490D01*
X134069157Y-79212284D01*
X134074465Y-79213706D01*
X134074467Y-79213707D01*
X134284998Y-79270119D01*
X134285000Y-79270119D01*
X134290313Y-79271543D01*
X134518400Y-79291498D01*
X134746487Y-79271543D01*
X134751800Y-79270119D01*
X134751802Y-79270119D01*
X134962333Y-79213707D01*
X134962335Y-79213706D01*
X134967643Y-79212284D01*
X134973635Y-79209490D01*
X135170162Y-79117849D01*
X135170167Y-79117846D01*
X135175149Y-79115523D01*
X135307372Y-79022939D01*
X135358189Y-78987357D01*
X135358192Y-78987355D01*
X135362700Y-78984198D01*
X135524598Y-78822300D01*
X135535599Y-78806590D01*
X135652766Y-78639257D01*
X135655923Y-78634749D01*
X135658246Y-78629767D01*
X135658249Y-78629762D01*
X135750361Y-78432225D01*
X135750361Y-78432224D01*
X135752684Y-78427243D01*
X135773376Y-78350022D01*
X135810519Y-78211402D01*
X135810519Y-78211400D01*
X135811943Y-78206087D01*
X135831898Y-77978000D01*
X135811943Y-77749913D01*
X135775381Y-77613461D01*
X135754107Y-77534067D01*
X135754106Y-77534065D01*
X135752684Y-77528757D01*
X135730240Y-77480625D01*
X135658249Y-77326238D01*
X135658246Y-77326233D01*
X135655923Y-77321251D01*
X135552773Y-77173938D01*
X135527757Y-77138211D01*
X135527755Y-77138208D01*
X135524598Y-77133700D01*
X135362700Y-76971802D01*
X135358192Y-76968645D01*
X135358189Y-76968643D01*
X135263123Y-76902077D01*
X135175149Y-76840477D01*
X135170167Y-76838154D01*
X135170162Y-76838151D01*
X134972625Y-76746039D01*
X134972624Y-76746039D01*
X134967643Y-76743716D01*
X134962335Y-76742294D01*
X134962333Y-76742293D01*
X134751802Y-76685881D01*
X134751800Y-76685881D01*
X134746487Y-76684457D01*
X134518400Y-76664502D01*
X134290313Y-76684457D01*
X134285000Y-76685881D01*
X134284998Y-76685881D01*
X134074467Y-76742293D01*
X134074465Y-76742294D01*
X134069157Y-76743716D01*
X134064176Y-76746039D01*
X134064175Y-76746039D01*
X133866638Y-76838151D01*
X133866633Y-76838154D01*
X133861651Y-76840477D01*
X133773677Y-76902077D01*
X133678611Y-76968643D01*
X133678608Y-76968645D01*
X133674100Y-76971802D01*
X133512202Y-77133700D01*
X133509045Y-77138208D01*
X133509043Y-77138211D01*
X133484027Y-77173938D01*
X133380877Y-77321251D01*
X133378554Y-77326233D01*
X133378551Y-77326238D01*
X133362319Y-77361049D01*
X133315402Y-77414334D01*
X133247125Y-77433795D01*
X133179165Y-77413253D01*
X133133929Y-77361049D01*
X133117814Y-77326489D01*
X133112331Y-77316994D01*
X133075891Y-77264952D01*
X133065412Y-77256576D01*
X133051966Y-77263644D01*
X132350422Y-77965188D01*
X132342808Y-77979132D01*
X131612756Y-77979132D01*
X131613992Y-77976868D01*
X131613861Y-77975035D01*
X131609610Y-77968420D01*
X130904113Y-77262923D01*
X130892338Y-77256493D01*
X130880323Y-77265789D01*
X130844469Y-77316994D01*
X130838986Y-77326489D01*
X130746910Y-77523947D01*
X130743164Y-77534239D01*
X130686775Y-77744688D01*
X130684872Y-77755481D01*
X130665883Y-77972525D01*
X130665883Y-77983475D01*
X125588662Y-77983475D01*
X125542822Y-77912617D01*
X125542820Y-77912614D01*
X125540014Y-77908277D01*
X125389670Y-77743051D01*
X125385619Y-77739852D01*
X125385615Y-77739848D01*
X125218414Y-77607800D01*
X125218410Y-77607798D01*
X125214359Y-77604598D01*
X125172569Y-77581529D01*
X125122598Y-77531097D01*
X125107826Y-77461654D01*
X125132942Y-77395248D01*
X125160294Y-77368641D01*
X125335328Y-77243792D01*
X125343200Y-77237139D01*
X125494052Y-77086812D01*
X125500730Y-77078965D01*
X125625003Y-76906020D01*
X125630313Y-76897183D01*
X125633375Y-76890988D01*
X131256976Y-76890988D01*
X131264044Y-76904434D01*
X131965588Y-77605978D01*
X131979532Y-77613592D01*
X131981365Y-77613461D01*
X131987980Y-77609210D01*
X132693477Y-76903713D01*
X132699907Y-76891938D01*
X132690611Y-76879923D01*
X132639406Y-76844069D01*
X132629911Y-76838586D01*
X132432453Y-76746510D01*
X132422161Y-76742764D01*
X132211712Y-76686375D01*
X132200919Y-76684472D01*
X131983875Y-76665483D01*
X131972925Y-76665483D01*
X131755881Y-76684472D01*
X131745088Y-76686375D01*
X131534639Y-76742764D01*
X131524347Y-76746510D01*
X131326889Y-76838586D01*
X131317394Y-76844069D01*
X131265352Y-76880509D01*
X131256976Y-76890988D01*
X125633375Y-76890988D01*
X125724670Y-76706267D01*
X125728469Y-76696672D01*
X125790377Y-76492910D01*
X125792555Y-76482837D01*
X125793986Y-76471962D01*
X125791775Y-76457778D01*
X125778617Y-76454000D01*
X124332000Y-76454000D01*
X124263879Y-76433998D01*
X124217386Y-76380342D01*
X124206000Y-76328000D01*
X124206000Y-76072000D01*
X124226002Y-76003879D01*
X124279658Y-75957386D01*
X124332000Y-75946000D01*
X125778344Y-75946000D01*
X125791875Y-75942027D01*
X125793180Y-75932947D01*
X125751214Y-75765875D01*
X125747894Y-75756124D01*
X125662972Y-75560814D01*
X125658105Y-75551739D01*
X125542426Y-75372926D01*
X125536136Y-75364757D01*
X125392806Y-75207240D01*
X125385273Y-75200215D01*
X125218139Y-75068222D01*
X125209556Y-75062520D01*
X125172602Y-75042120D01*
X125122631Y-74991687D01*
X125107859Y-74922245D01*
X125132975Y-74855839D01*
X125160327Y-74829232D01*
X125183797Y-74812491D01*
X125339860Y-74701173D01*
X125498096Y-74543489D01*
X125547329Y-74474974D01*
X125603324Y-74431326D01*
X125649652Y-74422500D01*
X126450024Y-74422500D01*
X126468974Y-74423933D01*
X126483373Y-74426124D01*
X126483379Y-74426124D01*
X126490608Y-74427224D01*
X126497900Y-74426631D01*
X126497903Y-74426631D01*
X126543583Y-74422915D01*
X126553798Y-74422500D01*
X126561925Y-74422500D01*
X126565561Y-74422076D01*
X126565563Y-74422076D01*
X126569015Y-74421673D01*
X126590324Y-74419189D01*
X126594644Y-74418762D01*
X126667826Y-74412809D01*
X126674788Y-74410553D01*
X126680776Y-74409357D01*
X126686733Y-74407949D01*
X126694007Y-74407101D01*
X126700889Y-74404603D01*
X126700893Y-74404602D01*
X126763007Y-74382055D01*
X126767111Y-74380645D01*
X126836975Y-74358013D01*
X126843238Y-74354213D01*
X126848780Y-74351675D01*
X126854256Y-74348933D01*
X126861141Y-74346434D01*
X126867265Y-74342419D01*
X126922532Y-74306185D01*
X126926200Y-74303870D01*
X126988981Y-74265773D01*
X126993186Y-74262059D01*
X126993189Y-74262057D01*
X126997405Y-74258333D01*
X126997431Y-74258362D01*
X127000362Y-74255762D01*
X127003716Y-74252958D01*
X127009835Y-74248946D01*
X127063389Y-74192413D01*
X127065766Y-74189972D01*
X128341350Y-72914388D01*
X128386385Y-72886790D01*
X128386093Y-72886135D01*
X128391066Y-72883921D01*
X128391067Y-72883921D01*
X128489851Y-72839939D01*
X128546000Y-72814940D01*
X128546002Y-72814939D01*
X128552030Y-72812255D01*
X128621385Y-72761866D01*
X128693637Y-72709372D01*
X128693639Y-72709370D01*
X128698981Y-72705489D01*
X128733754Y-72666870D01*
X128816104Y-72575411D01*
X128816105Y-72575410D01*
X128820523Y-72570503D01*
X128911343Y-72413197D01*
X128938709Y-72328972D01*
X128965433Y-72246725D01*
X128965433Y-72246724D01*
X128967473Y-72240446D01*
X128986460Y-72059800D01*
X128967473Y-71879154D01*
X128911343Y-71706403D01*
X128820523Y-71549097D01*
X128698981Y-71414111D01*
X128552030Y-71307345D01*
X128546002Y-71304661D01*
X128546000Y-71304660D01*
X128392124Y-71236150D01*
X128392123Y-71236150D01*
X128386093Y-71233465D01*
X128297257Y-71214582D01*
X128214878Y-71197072D01*
X128214874Y-71197072D01*
X128208421Y-71195700D01*
X128026779Y-71195700D01*
X128020326Y-71197072D01*
X128020322Y-71197072D01*
X127937943Y-71214582D01*
X127849107Y-71233465D01*
X127843077Y-71236150D01*
X127843076Y-71236150D01*
X127689200Y-71304660D01*
X127689198Y-71304661D01*
X127683170Y-71307345D01*
X127536219Y-71414111D01*
X127414677Y-71549097D01*
X127323857Y-71706403D01*
X127321816Y-71712685D01*
X127300089Y-71779553D01*
X127269351Y-71829711D01*
X126238467Y-72860595D01*
X126176155Y-72894621D01*
X126149372Y-72897500D01*
X125653351Y-72897500D01*
X125585230Y-72877498D01*
X125547558Y-72839939D01*
X125540014Y-72828277D01*
X125389670Y-72663051D01*
X125385619Y-72659852D01*
X125385615Y-72659848D01*
X125218414Y-72527800D01*
X125218410Y-72527798D01*
X125214359Y-72524598D01*
X125178028Y-72504542D01*
X125162136Y-72495769D01*
X125018789Y-72416638D01*
X125013920Y-72414914D01*
X125013916Y-72414912D01*
X124813087Y-72343795D01*
X124813083Y-72343794D01*
X124808212Y-72342069D01*
X124803119Y-72341162D01*
X124803116Y-72341161D01*
X124593373Y-72303800D01*
X124593367Y-72303799D01*
X124588284Y-72302894D01*
X124514452Y-72301992D01*
X124370081Y-72300228D01*
X124370079Y-72300228D01*
X124364911Y-72300165D01*
X124144091Y-72333955D01*
X123931756Y-72403357D01*
X123733607Y-72506507D01*
X123729474Y-72509610D01*
X123729471Y-72509612D01*
X123641835Y-72575411D01*
X123554965Y-72640635D01*
X123482648Y-72716311D01*
X123474283Y-72725064D01*
X123412759Y-72760494D01*
X123341846Y-72757037D01*
X123284060Y-72715791D01*
X123265207Y-72682243D01*
X123223767Y-72571703D01*
X123220615Y-72563295D01*
X123133261Y-72446739D01*
X123016705Y-72359385D01*
X122880316Y-72308255D01*
X122818134Y-72301500D01*
X121021866Y-72301500D01*
X120959684Y-72308255D01*
X120823295Y-72359385D01*
X120706739Y-72446739D01*
X120619385Y-72563295D01*
X120568255Y-72699684D01*
X120561500Y-72761866D01*
X120561500Y-74558134D01*
X120568255Y-74620316D01*
X120619385Y-74756705D01*
X120706739Y-74873261D01*
X120823295Y-74960615D01*
X120831704Y-74963767D01*
X120831705Y-74963768D01*
X120940451Y-75004535D01*
X120997216Y-75047176D01*
X121021916Y-75113738D01*
X121006709Y-75183087D01*
X120987316Y-75209568D01*
X120860629Y-75342138D01*
X120734743Y-75526680D01*
X120640688Y-75729305D01*
X120580989Y-75944570D01*
X120557251Y-76166695D01*
X120557548Y-76171848D01*
X120557548Y-76171851D01*
X120563011Y-76266590D01*
X120570110Y-76389715D01*
X120571247Y-76394761D01*
X120571248Y-76394767D01*
X120584597Y-76454000D01*
X120619222Y-76607639D01*
X120703266Y-76814616D01*
X120743286Y-76879923D01*
X120817291Y-77000688D01*
X120819987Y-77005088D01*
X120966250Y-77173938D01*
X121138126Y-77316632D01*
X121208595Y-77357811D01*
X121211445Y-77359476D01*
X121260169Y-77411114D01*
X121273240Y-77480897D01*
X121246509Y-77546669D01*
X121206055Y-77580027D01*
X121193607Y-77586507D01*
X121189474Y-77589610D01*
X121189471Y-77589612D01*
X121157533Y-77613592D01*
X121014965Y-77720635D01*
X120860629Y-77882138D01*
X120734743Y-78066680D01*
X120719003Y-78100590D01*
X120667566Y-78211402D01*
X120640688Y-78269305D01*
X120580989Y-78484570D01*
X120557251Y-78706695D01*
X120557548Y-78711848D01*
X120557548Y-78711851D01*
X120564141Y-78826197D01*
X120570110Y-78929715D01*
X120571247Y-78934761D01*
X120571248Y-78934767D01*
X120581510Y-78980301D01*
X120619222Y-79147639D01*
X120703266Y-79354616D01*
X120754019Y-79437438D01*
X120817291Y-79540688D01*
X120819987Y-79545088D01*
X120966250Y-79713938D01*
X121138126Y-79856632D01*
X121208595Y-79897811D01*
X121211445Y-79899476D01*
X121260169Y-79951114D01*
X121273240Y-80020897D01*
X121246509Y-80086669D01*
X121206055Y-80120027D01*
X121193607Y-80126507D01*
X121189474Y-80129610D01*
X121189471Y-80129612D01*
X121165247Y-80147800D01*
X121014965Y-80260635D01*
X120860629Y-80422138D01*
X120734743Y-80606680D01*
X120640688Y-80809305D01*
X120580989Y-81024570D01*
X120557251Y-81246695D01*
X120557548Y-81251848D01*
X120557548Y-81251851D01*
X120563011Y-81346590D01*
X120570110Y-81469715D01*
X120571247Y-81474761D01*
X120571248Y-81474767D01*
X120591119Y-81562939D01*
X120619222Y-81687639D01*
X120703266Y-81894616D01*
X120750109Y-81971057D01*
X120817291Y-82080688D01*
X120819987Y-82085088D01*
X120966250Y-82253938D01*
X121138126Y-82396632D01*
X121208595Y-82437811D01*
X121211445Y-82439476D01*
X121260169Y-82491114D01*
X121273240Y-82560897D01*
X121246509Y-82626669D01*
X121206055Y-82660027D01*
X121193607Y-82666507D01*
X121189474Y-82669610D01*
X121189471Y-82669612D01*
X121105266Y-82732835D01*
X121014965Y-82800635D01*
X120860629Y-82962138D01*
X120734743Y-83146680D01*
X120640688Y-83349305D01*
X120580989Y-83564570D01*
X120557251Y-83786695D01*
X120557548Y-83791848D01*
X120557548Y-83791851D01*
X120568139Y-83975535D01*
X120570110Y-84009715D01*
X120571247Y-84014761D01*
X120571248Y-84014767D01*
X120591119Y-84102939D01*
X120619222Y-84227639D01*
X120668153Y-84348143D01*
X120698512Y-84422907D01*
X120703266Y-84434616D01*
X120754019Y-84517438D01*
X120817291Y-84620688D01*
X120819987Y-84625088D01*
X120966250Y-84793938D01*
X121138126Y-84936632D01*
X121208595Y-84977811D01*
X121211445Y-84979476D01*
X121260169Y-85031114D01*
X121273240Y-85100897D01*
X121246509Y-85166669D01*
X121206055Y-85200027D01*
X121193607Y-85206507D01*
X121189474Y-85209610D01*
X121189471Y-85209612D01*
X121165247Y-85227800D01*
X121014965Y-85340635D01*
X120860629Y-85502138D01*
X120734743Y-85686680D01*
X120640688Y-85889305D01*
X120580989Y-86104570D01*
X120557251Y-86326695D01*
X120557548Y-86331848D01*
X120557548Y-86331851D01*
X120563011Y-86426590D01*
X120570110Y-86549715D01*
X120571247Y-86554761D01*
X120571248Y-86554767D01*
X120591119Y-86642939D01*
X120619222Y-86767639D01*
X120703266Y-86974616D01*
X120754019Y-87057438D01*
X120817291Y-87160688D01*
X120819987Y-87165088D01*
X120966250Y-87333938D01*
X121138126Y-87476632D01*
X121208595Y-87517811D01*
X121211445Y-87519476D01*
X121260169Y-87571114D01*
X121273240Y-87640897D01*
X121246509Y-87706669D01*
X121206055Y-87740027D01*
X121193607Y-87746507D01*
X121189474Y-87749610D01*
X121189471Y-87749612D01*
X121165247Y-87767800D01*
X121014965Y-87880635D01*
X120860629Y-88042138D01*
X120734743Y-88226680D01*
X120640688Y-88429305D01*
X120580989Y-88644570D01*
X120557251Y-88866695D01*
X120557548Y-88871848D01*
X120557548Y-88871851D01*
X120563011Y-88966590D01*
X120570110Y-89089715D01*
X120571247Y-89094761D01*
X120571248Y-89094767D01*
X120591119Y-89182939D01*
X120619222Y-89307639D01*
X120703266Y-89514616D01*
X120754019Y-89597438D01*
X120817291Y-89700688D01*
X120819987Y-89705088D01*
X120966250Y-89873938D01*
X121138126Y-90016632D01*
X121163835Y-90031655D01*
X121211445Y-90059476D01*
X121260169Y-90111114D01*
X121273240Y-90180897D01*
X121246509Y-90246669D01*
X121206055Y-90280027D01*
X121193607Y-90286507D01*
X121189474Y-90289610D01*
X121189471Y-90289612D01*
X121019100Y-90417530D01*
X121014965Y-90420635D01*
X120996605Y-90439848D01*
X120885296Y-90556326D01*
X120860629Y-90582138D01*
X120734743Y-90766680D01*
X120719003Y-90800590D01*
X120649986Y-90949275D01*
X120640688Y-90969305D01*
X120580989Y-91184570D01*
X120557251Y-91406695D01*
X120557548Y-91411848D01*
X120557548Y-91411851D01*
X120563011Y-91506590D01*
X120570110Y-91629715D01*
X120571247Y-91634761D01*
X120571248Y-91634767D01*
X120591119Y-91722939D01*
X120619222Y-91847639D01*
X120657461Y-91941811D01*
X120698453Y-92042762D01*
X120703266Y-92054616D01*
X120754019Y-92137438D01*
X120817291Y-92240688D01*
X120819987Y-92245088D01*
X120966250Y-92413938D01*
X121138126Y-92556632D01*
X121194341Y-92589481D01*
X121211445Y-92599476D01*
X121260169Y-92651114D01*
X121273240Y-92720897D01*
X121246509Y-92786669D01*
X121206055Y-92820027D01*
X121193607Y-92826507D01*
X121189474Y-92829610D01*
X121189471Y-92829612D01*
X121065567Y-92922642D01*
X121014965Y-92960635D01*
X120860629Y-93122138D01*
X120734743Y-93306680D01*
X120640688Y-93509305D01*
X120580989Y-93724570D01*
X120557251Y-93946695D01*
X120557548Y-93951848D01*
X120557548Y-93951851D01*
X120563011Y-94046590D01*
X120570110Y-94169715D01*
X120571247Y-94174761D01*
X120571248Y-94174767D01*
X120591119Y-94262939D01*
X120619222Y-94387639D01*
X120703266Y-94594616D01*
X120754019Y-94677438D01*
X120817291Y-94780688D01*
X120819987Y-94785088D01*
X120966250Y-94953938D01*
X121138126Y-95096632D01*
X121208595Y-95137811D01*
X121211445Y-95139476D01*
X121260169Y-95191114D01*
X121273240Y-95260897D01*
X121246509Y-95326669D01*
X121206055Y-95360027D01*
X121193607Y-95366507D01*
X121189474Y-95369610D01*
X121189471Y-95369612D01*
X121165247Y-95387800D01*
X121014965Y-95500635D01*
X120860629Y-95662138D01*
X120857720Y-95666403D01*
X120857714Y-95666411D01*
X120818895Y-95723318D01*
X120734743Y-95846680D01*
X120640688Y-96049305D01*
X120580989Y-96264570D01*
X120557251Y-96486695D01*
X116586500Y-96486695D01*
X116586500Y-70230500D01*
X116606502Y-70162379D01*
X116660158Y-70115886D01*
X116712500Y-70104500D01*
X172847500Y-70104500D01*
X172915621Y-70124502D01*
G37*
%TD.AperFunction*%
%TD*%
M02*
