%TF.GenerationSoftware,KiCad,Pcbnew,(6.0.7)*%
%TF.CreationDate,2022-10-05T21:46:34-04:00*%
%TF.ProjectId,tifi_daughterboard,74696669-5f64-4617-9567-68746572626f,0*%
%TF.SameCoordinates,Original*%
%TF.FileFunction,Legend,Bot*%
%TF.FilePolarity,Positive*%
%FSLAX46Y46*%
G04 Gerber Fmt 4.6, Leading zero omitted, Abs format (unit mm)*
G04 Created by KiCad (PCBNEW (6.0.7)) date 2022-10-05 21:46:34*
%MOMM*%
%LPD*%
G01*
G04 APERTURE LIST*
%ADD10C,0.127000*%
%ADD11C,0.150000*%
G04 APERTURE END LIST*
D10*
X129997200Y-76962000D02*
X127304800Y-76962000D01*
X126288800Y-76200000D01*
X127304800Y-75438000D01*
X129997200Y-75438000D01*
X129997200Y-76962000D01*
X120096443Y-73660000D02*
X119080443Y-74422000D01*
X116337243Y-74422000D01*
X116337243Y-72898000D01*
X119080443Y-72898000D01*
X120096443Y-73660000D01*
X130022600Y-74422000D02*
X127279400Y-74422000D01*
X126263400Y-73660000D01*
X127279400Y-72898000D01*
X130022600Y-72898000D01*
X130022600Y-74422000D01*
D11*
X171845653Y-98512380D02*
X171274225Y-98512380D01*
X171684939Y-99512380D02*
X171559939Y-98512380D01*
X171065891Y-99512380D02*
X170940891Y-98512380D01*
X170542082Y-99131428D02*
X169780177Y-99131428D01*
X168952796Y-98988571D02*
X169286129Y-98988571D01*
X169351605Y-99512380D02*
X169226605Y-98512380D01*
X168750415Y-98512380D01*
X168494463Y-99512380D02*
X168369463Y-98512380D01*
X167256367Y-99512380D02*
X167131367Y-98512380D01*
X166893272Y-98512380D01*
X166756367Y-98560000D01*
X166673034Y-98655238D01*
X166637320Y-98750476D01*
X166613510Y-98940952D01*
X166631367Y-99083809D01*
X166702796Y-99274285D01*
X166762320Y-99369523D01*
X166869463Y-99464761D01*
X167018272Y-99512380D01*
X167256367Y-99512380D01*
X166268272Y-99226666D02*
X165792082Y-99226666D01*
X166399225Y-99512380D02*
X165940891Y-98512380D01*
X165732558Y-99512380D01*
X165274225Y-98512380D02*
X165375415Y-99321904D01*
X165339701Y-99417142D01*
X165298034Y-99464761D01*
X165208748Y-99512380D01*
X165018272Y-99512380D01*
X164917082Y-99464761D01*
X164863510Y-99417142D01*
X164803986Y-99321904D01*
X164702796Y-98512380D01*
X163708748Y-98560000D02*
X163798034Y-98512380D01*
X163940891Y-98512380D01*
X164089701Y-98560000D01*
X164196844Y-98655238D01*
X164256367Y-98750476D01*
X164327796Y-98940952D01*
X164345653Y-99083809D01*
X164321844Y-99274285D01*
X164286129Y-99369523D01*
X164202796Y-99464761D01*
X164065891Y-99512380D01*
X163970653Y-99512380D01*
X163821844Y-99464761D01*
X163768272Y-99417142D01*
X163726605Y-99083809D01*
X163917082Y-99083809D01*
X163351605Y-99512380D02*
X163226605Y-98512380D01*
X163286129Y-98988571D02*
X162714701Y-98988571D01*
X162780177Y-99512380D02*
X162655177Y-98512380D01*
X162321844Y-98512380D02*
X161750415Y-98512380D01*
X162161129Y-99512380D02*
X162036129Y-98512380D01*
X161476605Y-98988571D02*
X161143272Y-98988571D01*
X161065891Y-99512380D02*
X161542082Y-99512380D01*
X161417082Y-98512380D01*
X160940891Y-98512380D01*
X160065891Y-99512380D02*
X160339701Y-99036190D01*
X160637320Y-99512380D02*
X160512320Y-98512380D01*
X160131367Y-98512380D01*
X160042082Y-98560000D01*
X160000415Y-98607619D01*
X159964701Y-98702857D01*
X159982558Y-98845714D01*
X160042082Y-98940952D01*
X160095653Y-98988571D01*
X160196844Y-99036190D01*
X160577796Y-99036190D01*
X159238510Y-98988571D02*
X159101605Y-99036190D01*
X159059939Y-99083809D01*
X159024225Y-99179047D01*
X159042082Y-99321904D01*
X159101605Y-99417142D01*
X159155177Y-99464761D01*
X159256367Y-99512380D01*
X159637320Y-99512380D01*
X159512320Y-98512380D01*
X159178986Y-98512380D01*
X159089701Y-98560000D01*
X159048034Y-98607619D01*
X159012320Y-98702857D01*
X159024225Y-98798095D01*
X159083748Y-98893333D01*
X159137320Y-98940952D01*
X159238510Y-98988571D01*
X159571844Y-98988571D01*
X158321844Y-98512380D02*
X158131367Y-98512380D01*
X158042082Y-98560000D01*
X157958748Y-98655238D01*
X157934939Y-98845714D01*
X157976605Y-99179047D01*
X158048034Y-99369523D01*
X158155177Y-99464761D01*
X158256367Y-99512380D01*
X158446844Y-99512380D01*
X158536129Y-99464761D01*
X158619463Y-99369523D01*
X158643272Y-99179047D01*
X158601605Y-98845714D01*
X158530177Y-98655238D01*
X158423034Y-98560000D01*
X158321844Y-98512380D01*
X157601605Y-99226666D02*
X157125415Y-99226666D01*
X157732558Y-99512380D02*
X157274225Y-98512380D01*
X157065891Y-99512380D01*
X156161129Y-99512380D02*
X156434939Y-99036190D01*
X156732558Y-99512380D02*
X156607558Y-98512380D01*
X156226605Y-98512380D01*
X156137320Y-98560000D01*
X156095653Y-98607619D01*
X156059939Y-98702857D01*
X156077796Y-98845714D01*
X156137320Y-98940952D01*
X156190891Y-98988571D01*
X156292082Y-99036190D01*
X156673034Y-99036190D01*
X155732558Y-99512380D02*
X155607558Y-98512380D01*
X155369463Y-98512380D01*
X155232558Y-98560000D01*
X155149225Y-98655238D01*
X155113510Y-98750476D01*
X155089701Y-98940952D01*
X155107558Y-99083809D01*
X155178986Y-99274285D01*
X155238510Y-99369523D01*
X155345653Y-99464761D01*
X155494463Y-99512380D01*
X155732558Y-99512380D01*
X171278419Y-101036380D02*
X171611752Y-100560190D01*
X171849847Y-101036380D02*
X171849847Y-100036380D01*
X171468895Y-100036380D01*
X171373657Y-100084000D01*
X171326038Y-100131619D01*
X171278419Y-100226857D01*
X171278419Y-100369714D01*
X171326038Y-100464952D01*
X171373657Y-100512571D01*
X171468895Y-100560190D01*
X171849847Y-100560190D01*
X170849847Y-100512571D02*
X170516514Y-100512571D01*
X170373657Y-101036380D02*
X170849847Y-101036380D01*
X170849847Y-100036380D01*
X170373657Y-100036380D01*
X170087942Y-100036380D02*
X169754609Y-101036380D01*
X169421276Y-100036380D01*
X168897466Y-100036380D02*
X168802228Y-100036380D01*
X168706990Y-100084000D01*
X168659371Y-100131619D01*
X168611752Y-100226857D01*
X168564133Y-100417333D01*
X168564133Y-100655428D01*
X168611752Y-100845904D01*
X168659371Y-100941142D01*
X168706990Y-100988761D01*
X168802228Y-101036380D01*
X168897466Y-101036380D01*
X168992704Y-100988761D01*
X169040323Y-100941142D01*
X169087942Y-100845904D01*
X169135561Y-100655428D01*
X169135561Y-100417333D01*
X169087942Y-100226857D01*
X169040323Y-100131619D01*
X168992704Y-100084000D01*
X168897466Y-100036380D01*
X129235104Y-75750800D02*
X129330342Y-75703180D01*
X129473200Y-75703180D01*
X129616057Y-75750800D01*
X129711295Y-75846038D01*
X129758914Y-75941276D01*
X129806533Y-76131752D01*
X129806533Y-76274609D01*
X129758914Y-76465085D01*
X129711295Y-76560323D01*
X129616057Y-76655561D01*
X129473200Y-76703180D01*
X129377961Y-76703180D01*
X129235104Y-76655561D01*
X129187485Y-76607942D01*
X129187485Y-76274609D01*
X129377961Y-76274609D01*
X128758914Y-76703180D02*
X128758914Y-75703180D01*
X128187485Y-76703180D01*
X128187485Y-75703180D01*
X127711295Y-76703180D02*
X127711295Y-75703180D01*
X127473200Y-75703180D01*
X127330342Y-75750800D01*
X127235104Y-75846038D01*
X127187485Y-75941276D01*
X127139866Y-76131752D01*
X127139866Y-76274609D01*
X127187485Y-76465085D01*
X127235104Y-76560323D01*
X127330342Y-76655561D01*
X127473200Y-76703180D01*
X127711295Y-76703180D01*
X128816076Y-73163180D02*
X129292266Y-73163180D01*
X129339885Y-73639371D01*
X129292266Y-73591752D01*
X129197028Y-73544133D01*
X128958933Y-73544133D01*
X128863695Y-73591752D01*
X128816076Y-73639371D01*
X128768457Y-73734609D01*
X128768457Y-73972704D01*
X128816076Y-74067942D01*
X128863695Y-74115561D01*
X128958933Y-74163180D01*
X129197028Y-74163180D01*
X129292266Y-74115561D01*
X129339885Y-74067942D01*
X128482742Y-73163180D02*
X128149409Y-74163180D01*
X127816076Y-73163180D01*
X119119495Y-73163180D02*
X118500447Y-73163180D01*
X118833780Y-73544133D01*
X118690923Y-73544133D01*
X118595685Y-73591752D01*
X118548066Y-73639371D01*
X118500447Y-73734609D01*
X118500447Y-73972704D01*
X118548066Y-74067942D01*
X118595685Y-74115561D01*
X118690923Y-74163180D01*
X118976638Y-74163180D01*
X119071876Y-74115561D01*
X119119495Y-74067942D01*
X118214733Y-73163180D02*
X117881400Y-74163180D01*
X117548066Y-73163180D01*
X117309971Y-73163180D02*
X116690923Y-73163180D01*
X117024257Y-73544133D01*
X116881400Y-73544133D01*
X116786161Y-73591752D01*
X116738542Y-73639371D01*
X116690923Y-73734609D01*
X116690923Y-73972704D01*
X116738542Y-74067942D01*
X116786161Y-74115561D01*
X116881400Y-74163180D01*
X117167114Y-74163180D01*
X117262352Y-74115561D01*
X117309971Y-74067942D01*
X172440504Y-73160000D02*
X172535742Y-73112380D01*
X172678600Y-73112380D01*
X172821457Y-73160000D01*
X172916695Y-73255238D01*
X172964314Y-73350476D01*
X173011933Y-73540952D01*
X173011933Y-73683809D01*
X172964314Y-73874285D01*
X172916695Y-73969523D01*
X172821457Y-74064761D01*
X172678600Y-74112380D01*
X172583361Y-74112380D01*
X172440504Y-74064761D01*
X172392885Y-74017142D01*
X172392885Y-73683809D01*
X172583361Y-73683809D01*
X171964314Y-74112380D02*
X171964314Y-73112380D01*
X171392885Y-74112380D01*
X171392885Y-73112380D01*
X170916695Y-74112380D02*
X170916695Y-73112380D01*
X170678600Y-73112380D01*
X170535742Y-73160000D01*
X170440504Y-73255238D01*
X170392885Y-73350476D01*
X170345266Y-73540952D01*
X170345266Y-73683809D01*
X170392885Y-73874285D01*
X170440504Y-73969523D01*
X170535742Y-74064761D01*
X170678600Y-74112380D01*
X170916695Y-74112380D01*
M02*
