%TF.GenerationSoftware,KiCad,Pcbnew,(6.0.7)*%
%TF.CreationDate,2022-11-02T22:50:04-04:00*%
%TF.ProjectId,tifi_daughterboard,74696669-5f64-4617-9567-68746572626f,1*%
%TF.SameCoordinates,Original*%
%TF.FileFunction,Copper,L1,Top*%
%TF.FilePolarity,Positive*%
%FSLAX46Y46*%
G04 Gerber Fmt 4.6, Leading zero omitted, Abs format (unit mm)*
G04 Created by KiCad (PCBNEW (6.0.7)) date 2022-11-02 22:50:04*
%MOMM*%
%LPD*%
G01*
G04 APERTURE LIST*
G04 Aperture macros list*
%AMRoundRect*
0 Rectangle with rounded corners*
0 $1 Rounding radius*
0 $2 $3 $4 $5 $6 $7 $8 $9 X,Y pos of 4 corners*
0 Add a 4 corners polygon primitive as box body*
4,1,4,$2,$3,$4,$5,$6,$7,$8,$9,$2,$3,0*
0 Add four circle primitives for the rounded corners*
1,1,$1+$1,$2,$3*
1,1,$1+$1,$4,$5*
1,1,$1+$1,$6,$7*
1,1,$1+$1,$8,$9*
0 Add four rect primitives between the rounded corners*
20,1,$1+$1,$2,$3,$4,$5,0*
20,1,$1+$1,$4,$5,$6,$7,0*
20,1,$1+$1,$6,$7,$8,$9,0*
20,1,$1+$1,$8,$9,$2,$3,0*%
%AMOutline5P*
0 Free polygon, 5 corners , with rotation*
0 The origin of the aperture is its center*
0 number of corners: always 5*
0 $1 to $10 corner X, Y*
0 $11 Rotation angle, in degrees counterclockwise*
0 create outline with 5 corners*
4,1,5,$1,$2,$3,$4,$5,$6,$7,$8,$9,$10,$1,$2,$11*%
%AMOutline6P*
0 Free polygon, 6 corners , with rotation*
0 The origin of the aperture is its center*
0 number of corners: always 6*
0 $1 to $12 corner X, Y*
0 $13 Rotation angle, in degrees counterclockwise*
0 create outline with 6 corners*
4,1,6,$1,$2,$3,$4,$5,$6,$7,$8,$9,$10,$11,$12,$1,$2,$13*%
%AMOutline7P*
0 Free polygon, 7 corners , with rotation*
0 The origin of the aperture is its center*
0 number of corners: always 7*
0 $1 to $14 corner X, Y*
0 $15 Rotation angle, in degrees counterclockwise*
0 create outline with 7 corners*
4,1,7,$1,$2,$3,$4,$5,$6,$7,$8,$9,$10,$11,$12,$13,$14,$1,$2,$15*%
%AMOutline8P*
0 Free polygon, 8 corners , with rotation*
0 The origin of the aperture is its center*
0 number of corners: always 8*
0 $1 to $16 corner X, Y*
0 $17 Rotation angle, in degrees counterclockwise*
0 create outline with 8 corners*
4,1,8,$1,$2,$3,$4,$5,$6,$7,$8,$9,$10,$11,$12,$13,$14,$15,$16,$1,$2,$17*%
G04 Aperture macros list end*
%TA.AperFunction,ComponentPad*%
%ADD10R,1.700000X1.700000*%
%TD*%
%TA.AperFunction,ComponentPad*%
%ADD11O,1.700000X1.700000*%
%TD*%
%TA.AperFunction,SMDPad,CuDef*%
%ADD12RoundRect,0.250000X-0.450000X0.325000X-0.450000X-0.325000X0.450000X-0.325000X0.450000X0.325000X0*%
%TD*%
%TA.AperFunction,SMDPad,CuDef*%
%ADD13RoundRect,0.250000X0.262500X0.450000X-0.262500X0.450000X-0.262500X-0.450000X0.262500X-0.450000X0*%
%TD*%
%TA.AperFunction,SMDPad,CuDef*%
%ADD14RoundRect,0.250000X-0.475000X0.250000X-0.475000X-0.250000X0.475000X-0.250000X0.475000X0.250000X0*%
%TD*%
%TA.AperFunction,ComponentPad*%
%ADD15C,1.600000*%
%TD*%
%TA.AperFunction,SMDPad,CuDef*%
%ADD16C,1.000000*%
%TD*%
%TA.AperFunction,SMDPad,CuDef*%
%ADD17RoundRect,0.250000X0.325000X0.650000X-0.325000X0.650000X-0.325000X-0.650000X0.325000X-0.650000X0*%
%TD*%
%TA.AperFunction,SMDPad,CuDef*%
%ADD18RoundRect,0.150000X-0.150000X0.587500X-0.150000X-0.587500X0.150000X-0.587500X0.150000X0.587500X0*%
%TD*%
%TA.AperFunction,SMDPad,CuDef*%
%ADD19RoundRect,0.250000X0.475000X-0.250000X0.475000X0.250000X-0.475000X0.250000X-0.475000X-0.250000X0*%
%TD*%
%TA.AperFunction,SMDPad,CuDef*%
%ADD20RoundRect,0.250000X-0.450000X0.262500X-0.450000X-0.262500X0.450000X-0.262500X0.450000X0.262500X0*%
%TD*%
%TA.AperFunction,SMDPad,CuDef*%
%ADD21RoundRect,0.250000X0.450000X-0.262500X0.450000X0.262500X-0.450000X0.262500X-0.450000X-0.262500X0*%
%TD*%
%TA.AperFunction,SMDPad,CuDef*%
%ADD22RoundRect,0.150000X0.150000X-0.587500X0.150000X0.587500X-0.150000X0.587500X-0.150000X-0.587500X0*%
%TD*%
%TA.AperFunction,SMDPad,CuDef*%
%ADD23R,0.550000X0.400000*%
%TD*%
%TA.AperFunction,SMDPad,CuDef*%
%ADD24Outline5P,-0.625000X0.550000X-0.325000X0.850000X0.625000X0.850000X0.625000X-0.850000X-0.625000X-0.850000X0.000000*%
%TD*%
%TA.AperFunction,SMDPad,CuDef*%
%ADD25R,0.590000X0.450000*%
%TD*%
%TA.AperFunction,SMDPad,CuDef*%
%ADD26RoundRect,0.250000X-0.325000X-0.650000X0.325000X-0.650000X0.325000X0.650000X-0.325000X0.650000X0*%
%TD*%
%TA.AperFunction,SMDPad,CuDef*%
%ADD27R,0.600000X1.550000*%
%TD*%
%TA.AperFunction,SMDPad,CuDef*%
%ADD28R,1.200000X1.800000*%
%TD*%
%TA.AperFunction,TestPad*%
%ADD29C,1.500000*%
%TD*%
%TA.AperFunction,SMDPad,CuDef*%
%ADD30R,0.500000X0.300000*%
%TD*%
%TA.AperFunction,ViaPad*%
%ADD31C,0.711200*%
%TD*%
%TA.AperFunction,ViaPad*%
%ADD32C,0.609600*%
%TD*%
%TA.AperFunction,ViaPad*%
%ADD33C,0.508000*%
%TD*%
%TA.AperFunction,Conductor*%
%ADD34C,0.381000*%
%TD*%
%TA.AperFunction,Conductor*%
%ADD35C,0.254000*%
%TD*%
%TA.AperFunction,Conductor*%
%ADD36C,0.304800*%
%TD*%
%TA.AperFunction,Conductor*%
%ADD37C,0.203200*%
%TD*%
%TA.AperFunction,Conductor*%
%ADD38C,0.508000*%
%TD*%
%TA.AperFunction,Conductor*%
%ADD39C,0.250000*%
%TD*%
G04 APERTURE END LIST*
D10*
%TO.P,J1,1,Pin_1*%
%TO.N,+3.3V*%
X121920000Y-73660000D03*
D11*
%TO.P,J1,2,Pin_2*%
%TO.N,+5V*%
X124460000Y-73660000D03*
%TO.P,J1,3,Pin_3*%
%TO.N,unconnected-(J1-Pad3)*%
X121920000Y-76200000D03*
%TO.P,J1,4,Pin_4*%
%TO.N,GND*%
X124460000Y-76200000D03*
%TO.P,J1,5,Pin_5*%
%TO.N,unconnected-(J1-Pad5)*%
X121920000Y-78740000D03*
%TO.P,J1,6,Pin_6*%
%TO.N,unconnected-(J1-Pad6)*%
X124460000Y-78740000D03*
%TO.P,J1,7,Pin_7*%
%TO.N,unconnected-(J1-Pad7)*%
X121920000Y-81280000D03*
%TO.P,J1,8,Pin_8*%
%TO.N,LDR_OUT*%
X124460000Y-81280000D03*
%TO.P,J1,9,Pin_9*%
%TO.N,unconnected-(J1-Pad9)*%
X121920000Y-83820000D03*
%TO.P,J1,10,Pin_10*%
%TO.N,unconnected-(J1-Pad10)*%
X124460000Y-83820000D03*
%TO.P,J1,11,Pin_11*%
%TO.N,unconnected-(J1-Pad11)*%
X121920000Y-86360000D03*
%TO.P,J1,12,Pin_12*%
%TO.N,unconnected-(J1-Pad12)*%
X124460000Y-86360000D03*
%TO.P,J1,13,Pin_13*%
%TO.N,unconnected-(J1-Pad13)*%
X121920000Y-88900000D03*
%TO.P,J1,14,Pin_14*%
%TO.N,unconnected-(J1-Pad14)*%
X124460000Y-88900000D03*
%TO.P,J1,15,Pin_15*%
%TO.N,unconnected-(J1-Pad15)*%
X121920000Y-91440000D03*
%TO.P,J1,16,Pin_16*%
%TO.N,unconnected-(J1-Pad16)*%
X124460000Y-91440000D03*
%TO.P,J1,17,Pin_17*%
%TO.N,I2C_SCL*%
X121920000Y-93980000D03*
%TO.P,J1,18,Pin_18*%
%TO.N,unconnected-(J1-Pad18)*%
X124460000Y-93980000D03*
%TO.P,J1,19,Pin_19*%
%TO.N,I2C_SDA*%
X121920000Y-96520000D03*
%TO.P,J1,20,Pin_20*%
%TO.N,unconnected-(J1-Pad20)*%
X124460000Y-96520000D03*
%TD*%
D12*
%TO.P,D1,1,K*%
%TO.N,GND*%
X154178000Y-73549000D03*
%TO.P,D1,2,A*%
%TO.N,Net-(D1-Pad2)*%
X154178000Y-75599000D03*
%TD*%
D13*
%TO.P,R2,1*%
%TO.N,+3.3V*%
X137767700Y-85547200D03*
%TO.P,R2,2*%
%TO.N,Net-(C4-Pad1)*%
X135942700Y-85547200D03*
%TD*%
D14*
%TO.P,C4,1*%
%TO.N,Net-(C4-Pad1)*%
X133299200Y-86680000D03*
%TO.P,C4,2*%
%TO.N,GND*%
X133299200Y-88580000D03*
%TD*%
D15*
%TO.P,R7,1*%
%TO.N,LDR_OUT*%
X134518400Y-77978000D03*
%TO.P,R7,2*%
%TO.N,GND*%
X131978400Y-77978000D03*
%TD*%
D16*
%TO.P,FID1,*%
%TO.N,*%
X118313200Y-98000000D03*
%TD*%
D17*
%TO.P,C2,1*%
%TO.N,+5V*%
X150065000Y-85090000D03*
%TO.P,C2,2*%
%TO.N,GND*%
X147115000Y-85090000D03*
%TD*%
D12*
%TO.P,D2,1,K*%
%TO.N,Net-(D2-Pad1)*%
X160248600Y-73540400D03*
%TO.P,D2,2,A*%
%TO.N,Net-(D2-Pad2)*%
X160248600Y-75590400D03*
%TD*%
D10*
%TO.P,J5,1,Pin_1*%
%TO.N,Net-(J5-Pad1)*%
X129692400Y-93141800D03*
D11*
%TO.P,J5,2,Pin_2*%
%TO.N,Net-(J5-Pad2)*%
X132232400Y-93141800D03*
%TO.P,J5,3,Pin_3*%
%TO.N,I2C_SCL*%
X129692400Y-95681800D03*
%TO.P,J5,4,Pin_4*%
%TO.N,I2C_SDA*%
X132232400Y-95681800D03*
%TD*%
D18*
%TO.P,Q1,1,G*%
%TO.N,Net-(Q1-Pad1)*%
X160208000Y-77853300D03*
%TO.P,Q1,2,S*%
%TO.N,GND*%
X158308000Y-77853300D03*
%TO.P,Q1,3,D*%
%TO.N,Net-(D2-Pad1)*%
X159258000Y-79728300D03*
%TD*%
D19*
%TO.P,C5,1*%
%TO.N,+3.3V*%
X132334000Y-100213200D03*
%TO.P,C5,2*%
%TO.N,GND*%
X132334000Y-98313200D03*
%TD*%
D10*
%TO.P,J2,1,Pin_1*%
%TO.N,unconnected-(J2-Pad1)*%
X165100000Y-73660000D03*
D11*
%TO.P,J2,2,Pin_2*%
%TO.N,GND*%
X167640000Y-73660000D03*
%TO.P,J2,3,Pin_3*%
%TO.N,unconnected-(J2-Pad3)*%
X165100000Y-76200000D03*
%TO.P,J2,4,Pin_4*%
%TO.N,PIR_OUT*%
X167640000Y-76200000D03*
%TO.P,J2,5,Pin_5*%
%TO.N,unconnected-(J2-Pad5)*%
X165100000Y-78740000D03*
%TO.P,J2,6,Pin_6*%
%TO.N,unconnected-(J2-Pad6)*%
X167640000Y-78740000D03*
%TO.P,J2,7,Pin_7*%
%TO.N,unconnected-(J2-Pad7)*%
X165100000Y-81280000D03*
%TO.P,J2,8,Pin_8*%
%TO.N,unconnected-(J2-Pad8)*%
X167640000Y-81280000D03*
%TO.P,J2,9,Pin_9*%
%TO.N,unconnected-(J2-Pad9)*%
X165100000Y-83820000D03*
%TO.P,J2,10,Pin_10*%
%TO.N,unconnected-(J2-Pad10)*%
X167640000Y-83820000D03*
%TO.P,J2,11,Pin_11*%
%TO.N,unconnected-(J2-Pad11)*%
X165100000Y-86360000D03*
%TO.P,J2,12,Pin_12*%
%TO.N,unconnected-(J2-Pad12)*%
X167640000Y-86360000D03*
%TO.P,J2,13,Pin_13*%
%TO.N,unconnected-(J2-Pad13)*%
X165100000Y-88900000D03*
%TO.P,J2,14,Pin_14*%
%TO.N,unconnected-(J2-Pad14)*%
X167640000Y-88900000D03*
%TO.P,J2,15,Pin_15*%
%TO.N,unconnected-(J2-Pad15)*%
X165100000Y-91440000D03*
%TO.P,J2,16,Pin_16*%
%TO.N,LED_PWM*%
X167640000Y-91440000D03*
%TO.P,J2,17,Pin_17*%
%TO.N,unconnected-(J2-Pad17)*%
X165100000Y-93980000D03*
%TO.P,J2,18,Pin_18*%
%TO.N,unconnected-(J2-Pad18)*%
X167640000Y-93980000D03*
%TO.P,J2,19,Pin_19*%
%TO.N,unconnected-(J2-Pad19)*%
X165100000Y-96520000D03*
%TO.P,J2,20,Pin_20*%
%TO.N,unconnected-(J2-Pad20)*%
X167640000Y-96520000D03*
%TD*%
D16*
%TO.P,FID2,*%
%TO.N,*%
X171729400Y-98000000D03*
%TD*%
D20*
%TO.P,R5,1*%
%TO.N,Net-(Q1-Pad1)*%
X157962600Y-82069300D03*
%TO.P,R5,2*%
%TO.N,GND*%
X157962600Y-83894300D03*
%TD*%
D21*
%TO.P,R4,1*%
%TO.N,LED_PWM*%
X160172400Y-83894300D03*
%TO.P,R4,2*%
%TO.N,Net-(Q1-Pad1)*%
X160172400Y-82069300D03*
%TD*%
D10*
%TO.P,J4,1,Pin_1*%
%TO.N,+5V*%
X150088600Y-91383400D03*
D11*
%TO.P,J4,2,Pin_2*%
%TO.N,PIR_OUT*%
X152628600Y-91383400D03*
%TO.P,J4,3,Pin_3*%
%TO.N,GND*%
X155168600Y-91383400D03*
%TD*%
D22*
%TO.P,D3,1,K*%
%TO.N,I2C_SDA*%
X140210650Y-94014500D03*
%TO.P,D3,2,K*%
%TO.N,I2C_SCL*%
X142110650Y-94014500D03*
%TO.P,D3,3,A*%
%TO.N,GND*%
X141160650Y-92139500D03*
%TD*%
D20*
%TO.P,R3,1*%
%TO.N,+5V*%
X157962600Y-73652900D03*
%TO.P,R3,2*%
%TO.N,Net-(D2-Pad2)*%
X157962600Y-75477900D03*
%TD*%
%TO.P,R1,1*%
%TO.N,+3.3V*%
X152095200Y-73661500D03*
%TO.P,R1,2*%
%TO.N,Net-(D1-Pad2)*%
X152095200Y-75486500D03*
%TD*%
D23*
%TO.P,U1,1,VDD*%
%TO.N,Net-(C4-Pad1)*%
X135476600Y-87404000D03*
%TO.P,U1,2,VSS*%
%TO.N,GND*%
X135476600Y-88204000D03*
%TO.P,U1,3,SDA*%
%TO.N,I2C_SDA*%
X135476600Y-89004000D03*
%TO.P,U1,4,N/A*%
%TO.N,GND*%
X137776600Y-89004000D03*
%TO.P,U1,5,VDDH*%
%TO.N,+3.3V*%
X137776600Y-88204000D03*
%TO.P,U1,6,SCL*%
%TO.N,I2C_SCL*%
X137776600Y-87404000D03*
D24*
%TO.P,U1,7,MP*%
%TO.N,GND*%
X136626600Y-88204000D03*
%TD*%
D20*
%TO.P,R9,1*%
%TO.N,+3.3V*%
X131089400Y-85066500D03*
%TO.P,R9,2*%
%TO.N,Net-(J5-Pad2)*%
X131089400Y-86891500D03*
%TD*%
%TO.P,R8,1*%
%TO.N,+3.3V*%
X128549400Y-85066500D03*
%TO.P,R8,2*%
%TO.N,Net-(J5-Pad1)*%
X128549400Y-86891500D03*
%TD*%
D16*
%TO.P,FID3,*%
%TO.N,*%
X171018200Y-71704200D03*
%TD*%
D25*
%TO.P,D4,1,A1*%
%TO.N,GND*%
X154750400Y-88493600D03*
%TO.P,D4,2,A2*%
%TO.N,PIR_OUT*%
X152640400Y-88493600D03*
%TD*%
D26*
%TO.P,C1,1*%
%TO.N,+3.3V*%
X140206200Y-81000600D03*
%TO.P,C1,2*%
%TO.N,GND*%
X143156200Y-81000600D03*
%TD*%
D20*
%TO.P,R6,1*%
%TO.N,+3.3V*%
X137464800Y-75262100D03*
%TO.P,R6,2*%
%TO.N,LDR_OUT*%
X137464800Y-77087100D03*
%TD*%
D27*
%TO.P,J3,1,Pin_1*%
%TO.N,GND*%
X138215000Y-96723200D03*
%TO.P,J3,2,Pin_2*%
%TO.N,+3.3V*%
X139215000Y-96723200D03*
%TO.P,J3,3,Pin_3*%
%TO.N,I2C_SDA*%
X140215000Y-96723200D03*
%TO.P,J3,4,Pin_4*%
%TO.N,I2C_SCL*%
X141215000Y-96723200D03*
D28*
%TO.P,J3,S1*%
%TO.N,N/C*%
X136915000Y-100598200D03*
%TO.P,J3,S2*%
X142515000Y-100598200D03*
%TD*%
D29*
%TO.P,TP1,1,1*%
%TO.N,Net-(Q1-Pad1)*%
X154736800Y-83159600D03*
%TD*%
D14*
%TO.P,C3,1*%
%TO.N,+3.3V*%
X139827000Y-88204000D03*
%TO.P,C3,2*%
%TO.N,GND*%
X139827000Y-90104000D03*
%TD*%
D30*
%TO.P,U2,1,SDA*%
%TO.N,I2C_SDA*%
X128941600Y-99549000D03*
%TO.P,U2,2,SCL*%
%TO.N,I2C_SCL*%
X128941600Y-100349000D03*
%TO.P,U2,3,VDD*%
%TO.N,+3.3V*%
X130341600Y-100349000D03*
%TO.P,U2,4,VSS*%
%TO.N,GND*%
X130341600Y-99549000D03*
%TD*%
D31*
%TO.N,GND*%
X144932400Y-81000600D03*
D32*
X131216400Y-99187000D03*
D31*
X154178000Y-72237600D03*
X157962600Y-85267800D03*
X157048200Y-78384400D03*
D32*
X138194400Y-95217600D03*
X138658600Y-89001600D03*
D33*
X136626600Y-87757000D03*
D31*
X145669000Y-85090000D03*
D32*
X134620000Y-88214200D03*
D31*
X140105250Y-92111800D03*
D33*
X136626600Y-88696800D03*
D31*
X155879800Y-88493600D03*
%TO.N,+5V*%
X128117600Y-72059800D03*
D32*
%TO.N,I2C_SCL*%
X140157200Y-98323400D03*
X138226800Y-98323400D03*
%TO.N,I2C_SDA*%
X130403600Y-97510600D03*
%TD*%
D34*
%TO.N,+3.3V*%
X140208000Y-85852000D02*
X140208000Y-86995000D01*
X131089400Y-85066500D02*
X131089400Y-82778600D01*
X132334000Y-100213200D02*
X133263600Y-100213200D01*
X143205200Y-85039200D02*
X142189200Y-84023200D01*
X139827000Y-87376000D02*
X139827000Y-88204000D01*
X133263600Y-100213200D02*
X134340600Y-99136200D01*
X140208000Y-73660000D02*
X137464800Y-73660000D01*
X129971800Y-82702400D02*
X131165600Y-82702400D01*
X139014200Y-82702400D02*
X140157200Y-82702400D01*
X137464800Y-73660000D02*
X136067800Y-73660000D01*
X139215000Y-99113200D02*
X139192000Y-99136200D01*
X131089400Y-82778600D02*
X131165600Y-82702400D01*
X128549400Y-85066500D02*
X128549400Y-84124800D01*
X139192000Y-99136200D02*
X141630400Y-99136200D01*
X137464800Y-75262100D02*
X137464800Y-73660000D01*
X127990600Y-73660000D02*
X136067800Y-73660000D01*
X141630400Y-99136200D02*
X143205200Y-97561400D01*
X142189200Y-84023200D02*
X140208000Y-84023200D01*
X140208000Y-85344000D02*
X140208000Y-85852000D01*
X121920000Y-73660000D02*
X121920000Y-72415400D01*
X128549400Y-84124800D02*
X129971800Y-82702400D01*
X140208000Y-85191600D02*
X140208000Y-85344000D01*
X137767700Y-82776700D02*
X137693400Y-82702400D01*
X131165600Y-82702400D02*
X137693400Y-82702400D01*
X140208000Y-84023200D02*
X140208000Y-85191600D01*
X134340600Y-99136200D02*
X139192000Y-99136200D01*
X121920000Y-72415400D02*
X122758200Y-71577200D01*
X152095200Y-73661500D02*
X140209500Y-73661500D01*
X140208000Y-82753200D02*
X140208000Y-84023200D01*
X122758200Y-71577200D02*
X125907800Y-71577200D01*
X143205200Y-97561400D02*
X143205200Y-85039200D01*
X137693400Y-82702400D02*
X139014200Y-82702400D01*
X125907800Y-71577200D02*
X127990600Y-73660000D01*
X140157200Y-82702400D02*
X140208000Y-82753200D01*
D35*
X137776600Y-88204000D02*
X139827000Y-88204000D01*
D34*
X139215000Y-96723200D02*
X139215000Y-99113200D01*
D35*
X130341600Y-100349000D02*
X131944200Y-100349000D01*
D34*
X137767700Y-85547200D02*
X137767700Y-82776700D01*
X140209500Y-73661500D02*
X140208000Y-73660000D01*
X140208000Y-86995000D02*
X139827000Y-87376000D01*
X140208000Y-82753200D02*
X140208000Y-73660000D01*
%TO.N,GND*%
X138215000Y-95466800D02*
X138215000Y-96723200D01*
D35*
X137776600Y-89004000D02*
X138656200Y-89004000D01*
X132334000Y-98313200D02*
X131404400Y-98313200D01*
D36*
X134630200Y-88204000D02*
X134620000Y-88214200D01*
X154750400Y-88493600D02*
X155879800Y-88493600D01*
X138658600Y-89763600D02*
X138999000Y-90104000D01*
D34*
X157579300Y-77853300D02*
X158308000Y-77853300D01*
D35*
X130854400Y-99549000D02*
X130341600Y-99549000D01*
D34*
X138194400Y-95293800D02*
X138208000Y-95307400D01*
X140132950Y-92139500D02*
X141146650Y-92139500D01*
D35*
X131216400Y-98501200D02*
X131216400Y-99187000D01*
X138656200Y-89004000D02*
X138658600Y-89001600D01*
X131216400Y-99187000D02*
X130854400Y-99549000D01*
D34*
X143156200Y-81000600D02*
X144932400Y-81000600D01*
D36*
X157962600Y-85267800D02*
X157962600Y-83894300D01*
X135476600Y-88204000D02*
X134630200Y-88204000D01*
X138999000Y-90104000D02*
X139827000Y-90104000D01*
D35*
X131404400Y-98313200D02*
X131216400Y-98501200D01*
D34*
X147115000Y-85090000D02*
X145669000Y-85090000D01*
X157048200Y-78384400D02*
X157579300Y-77853300D01*
D36*
X134203400Y-88630800D02*
X134620000Y-88214200D01*
X154178000Y-72237600D02*
X154178000Y-73549000D01*
X138658600Y-89001600D02*
X138658600Y-89763600D01*
X133299200Y-88630800D02*
X134203400Y-88630800D01*
D34*
%TO.N,Net-(D1-Pad2)*%
X154065500Y-75486500D02*
X154178000Y-75599000D01*
X152095200Y-75486500D02*
X154065500Y-75486500D01*
D37*
%TO.N,Net-(D2-Pad1)*%
X159766000Y-76631800D02*
X160985200Y-76631800D01*
X161170400Y-73540400D02*
X160248600Y-73540400D01*
X159258000Y-79728300D02*
X159258000Y-77139800D01*
X161620200Y-73990200D02*
X161170400Y-73540400D01*
X161620200Y-75996800D02*
X161620200Y-73990200D01*
X160985200Y-76631800D02*
X161620200Y-75996800D01*
X159258000Y-77139800D02*
X159766000Y-76631800D01*
D35*
%TO.N,Net-(D2-Pad2)*%
X158075100Y-75590400D02*
X157962600Y-75477900D01*
X160248600Y-75590400D02*
X158075100Y-75590400D01*
D38*
%TO.N,+5V*%
X155905200Y-77343000D02*
X150088600Y-83159600D01*
X150088600Y-83159600D02*
X150088600Y-91383400D01*
X155905200Y-71882000D02*
X155905200Y-73583800D01*
X155905200Y-73583800D02*
X155905200Y-77343000D01*
X157911800Y-73661900D02*
X155983300Y-73661900D01*
X128117600Y-72059800D02*
X129209800Y-70967600D01*
X154990800Y-70967600D02*
X155905200Y-71882000D01*
X155983300Y-73661900D02*
X155905200Y-73583800D01*
X129209800Y-70967600D02*
X154990800Y-70967600D01*
D35*
%TO.N,LDR_OUT*%
X136476100Y-77087100D02*
X135585200Y-77978000D01*
X137464800Y-77087100D02*
X136476100Y-77087100D01*
X135585200Y-77978000D02*
X134518400Y-77978000D01*
X134518400Y-77978000D02*
X131216400Y-81280000D01*
X131216400Y-81280000D02*
X124460000Y-81280000D01*
D37*
%TO.N,PIR_OUT*%
X170281600Y-98145600D02*
X170281600Y-78841600D01*
X170281600Y-78841600D02*
X167640000Y-76200000D01*
D36*
X152640400Y-91371600D02*
X152628600Y-91383400D01*
X152640400Y-88493600D02*
X152640400Y-91371600D01*
D37*
X168478200Y-99949000D02*
X170281600Y-98145600D01*
X161194200Y-99949000D02*
X168478200Y-99949000D01*
X152628600Y-91383400D02*
X161194200Y-99949000D01*
%TO.N,I2C_SCL*%
X141215000Y-96723200D02*
X141215000Y-94344600D01*
X131046233Y-94327967D02*
X131046233Y-90990433D01*
X123176400Y-92723600D02*
X126734200Y-92723600D01*
X141215000Y-97799000D02*
X141215000Y-96723200D01*
X136855200Y-86156800D02*
X137776600Y-87078200D01*
X137776600Y-87078200D02*
X137776600Y-87404000D01*
X131817359Y-85979000D02*
X133442959Y-84353400D01*
X128505000Y-100349000D02*
X128941600Y-100349000D01*
X141545100Y-94014500D02*
X142110650Y-94014500D01*
X119888000Y-97536000D02*
X123190000Y-100838000D01*
X131165600Y-97256600D02*
X137160000Y-97256600D01*
X131046233Y-90990433D02*
X129794000Y-89738200D01*
X129794000Y-89738200D02*
X129794000Y-86563200D01*
X130378200Y-85979000D02*
X131817359Y-85979000D01*
X136855200Y-84785200D02*
X136855200Y-86156800D01*
X121920000Y-93980000D02*
X119888000Y-96012000D01*
X140690600Y-98323400D02*
X141215000Y-97799000D01*
X141215000Y-94344600D02*
X141545100Y-94014500D01*
X137160000Y-97256600D02*
X138226800Y-98323400D01*
X136423400Y-84353400D02*
X136855200Y-84785200D01*
X128016000Y-100838000D02*
X128505000Y-100349000D01*
X140157200Y-98323400D02*
X140690600Y-98323400D01*
X129692400Y-95681800D02*
X131046233Y-94327967D01*
X133442959Y-84353400D02*
X136423400Y-84353400D01*
X129717800Y-95808800D02*
X131165600Y-97256600D01*
X126734200Y-92723600D02*
X129692400Y-95681800D01*
X129794000Y-86563200D02*
X130378200Y-85979000D01*
X119888000Y-96012000D02*
X119888000Y-97536000D01*
X123190000Y-100838000D02*
X128016000Y-100838000D01*
X121920000Y-93980000D02*
X123176400Y-92723600D01*
%TO.N,I2C_SDA*%
X132232400Y-95681800D02*
X135476600Y-92437600D01*
X140210650Y-94014500D02*
X140201550Y-94005400D01*
X123088400Y-95351600D02*
X121920000Y-96520000D01*
X140215000Y-96723200D02*
X140215000Y-94018850D01*
X140201550Y-94005400D02*
X137363200Y-94005400D01*
X135686800Y-95681800D02*
X137363200Y-94005400D01*
X130403600Y-97510600D02*
X128143000Y-97510600D01*
X124949000Y-99549000D02*
X128941600Y-99549000D01*
X132232400Y-95681800D02*
X135686800Y-95681800D01*
X135476600Y-92437600D02*
X135476600Y-89004000D01*
X125984000Y-95351600D02*
X123088400Y-95351600D01*
X140215000Y-94018850D02*
X140210650Y-94014500D01*
X128143000Y-97510600D02*
X125984000Y-95351600D01*
X121920000Y-96520000D02*
X124949000Y-99549000D01*
%TO.N,LED_PWM*%
X160172400Y-87376000D02*
X160172400Y-83894300D01*
X167640000Y-91440000D02*
X166370000Y-90170000D01*
X166370000Y-90170000D02*
X162966400Y-90170000D01*
X162966400Y-90170000D02*
X160172400Y-87376000D01*
D34*
%TO.N,Net-(C4-Pad1)*%
X133299200Y-86004400D02*
X133756400Y-85547200D01*
X133299200Y-86730800D02*
X133299200Y-86004400D01*
X133756400Y-85547200D02*
X135942700Y-85547200D01*
D36*
X134902000Y-87404000D02*
X135476600Y-87404000D01*
X133299200Y-86730800D02*
X134228800Y-86730800D01*
X134228800Y-86730800D02*
X134902000Y-87404000D01*
D37*
%TO.N,Net-(Q1-Pad1)*%
X160172400Y-77888900D02*
X160208000Y-77853300D01*
D39*
X155827100Y-82069300D02*
X157962600Y-82069300D01*
X154736800Y-83159600D02*
X155827100Y-82069300D01*
D37*
X160172400Y-82069300D02*
X157962600Y-82069300D01*
X160172400Y-82069300D02*
X160172400Y-77888900D01*
D34*
%TO.N,Net-(J5-Pad1)*%
X128549400Y-90906600D02*
X128549400Y-86891500D01*
X129717800Y-93268800D02*
X129717800Y-92075000D01*
X129717800Y-92075000D02*
X128549400Y-90906600D01*
%TO.N,Net-(J5-Pad2)*%
X132257800Y-93268800D02*
X132257800Y-89890600D01*
X131089400Y-88722200D02*
X131089400Y-86891500D01*
X132257800Y-89890600D02*
X131089400Y-88722200D01*
%TD*%
M02*
