%TF.GenerationSoftware,KiCad,Pcbnew,(6.0.7)*%
%TF.CreationDate,2022-10-05T21:46:34-04:00*%
%TF.ProjectId,tifi_daughterboard,74696669-5f64-4617-9567-68746572626f,0*%
%TF.SameCoordinates,Original*%
%TF.FileFunction,Soldermask,Bot*%
%TF.FilePolarity,Negative*%
%FSLAX46Y46*%
G04 Gerber Fmt 4.6, Leading zero omitted, Abs format (unit mm)*
G04 Created by KiCad (PCBNEW (6.0.7)) date 2022-10-05 21:46:34*
%MOMM*%
%LPD*%
G01*
G04 APERTURE LIST*
%ADD10C,1.600000*%
%ADD11R,1.700000X1.700000*%
%ADD12O,1.700000X1.700000*%
%ADD13C,1.500000*%
G04 APERTURE END LIST*
D10*
%TO.C,R7*%
X134518400Y-77978000D03*
X131978400Y-77978000D03*
%TD*%
D11*
%TO.C,J5*%
X128498600Y-91440000D03*
D12*
X131038600Y-91440000D03*
X128498600Y-93980000D03*
X131038600Y-93980000D03*
%TD*%
D11*
%TO.C,J2*%
X165100000Y-73660000D03*
D12*
X167640000Y-73660000D03*
X165100000Y-76200000D03*
X167640000Y-76200000D03*
X165100000Y-78740000D03*
X167640000Y-78740000D03*
X165100000Y-81280000D03*
X167640000Y-81280000D03*
X165100000Y-83820000D03*
X167640000Y-83820000D03*
X165100000Y-86360000D03*
X167640000Y-86360000D03*
X165100000Y-88900000D03*
X167640000Y-88900000D03*
X165100000Y-91440000D03*
X167640000Y-91440000D03*
X165100000Y-93980000D03*
X167640000Y-93980000D03*
X165100000Y-96520000D03*
X167640000Y-96520000D03*
%TD*%
D11*
%TO.C,J1*%
X121920000Y-73660000D03*
D12*
X124460000Y-73660000D03*
X121920000Y-76200000D03*
X124460000Y-76200000D03*
X121920000Y-78740000D03*
X124460000Y-78740000D03*
X121920000Y-81280000D03*
X124460000Y-81280000D03*
X121920000Y-83820000D03*
X124460000Y-83820000D03*
X121920000Y-86360000D03*
X124460000Y-86360000D03*
X121920000Y-88900000D03*
X124460000Y-88900000D03*
X121920000Y-91440000D03*
X124460000Y-91440000D03*
X121920000Y-93980000D03*
X124460000Y-93980000D03*
X121920000Y-96520000D03*
X124460000Y-96520000D03*
%TD*%
D11*
%TO.C,J4*%
X150088600Y-91383400D03*
D12*
X152628600Y-91383400D03*
X155168600Y-91383400D03*
%TD*%
D13*
%TO.C,TP1*%
X154736800Y-83159600D03*
%TD*%
M02*
