%TF.GenerationSoftware,KiCad,Pcbnew,(6.0.7)*%
%TF.CreationDate,2022-11-02T22:50:05-04:00*%
%TF.ProjectId,tifi_daughterboard,74696669-5f64-4617-9567-68746572626f,1*%
%TF.SameCoordinates,Original*%
%TF.FileFunction,Legend,Bot*%
%TF.FilePolarity,Positive*%
%FSLAX46Y46*%
G04 Gerber Fmt 4.6, Leading zero omitted, Abs format (unit mm)*
G04 Created by KiCad (PCBNEW (6.0.7)) date 2022-11-02 22:50:05*
%MOMM*%
%LPD*%
G01*
G04 APERTURE LIST*
%ADD10C,0.127000*%
%ADD11C,0.150000*%
%ADD12C,0.010000*%
G04 APERTURE END LIST*
D10*
X129997200Y-76962000D02*
X127304800Y-76962000D01*
X126288800Y-76200000D01*
X127304800Y-75438000D01*
X129997200Y-75438000D01*
X129997200Y-76962000D01*
X120096443Y-73660000D02*
X119080443Y-74422000D01*
X116337243Y-74422000D01*
X116337243Y-72898000D01*
X119080443Y-72898000D01*
X120096443Y-73660000D01*
X173228000Y-74498200D02*
X170484800Y-74498200D01*
X169468800Y-73736200D01*
X170484800Y-72974200D01*
X173228000Y-72974200D01*
X173228000Y-74498200D01*
X130022600Y-74422000D02*
X127279400Y-74422000D01*
X126263400Y-73660000D01*
X127279400Y-72898000D01*
X130022600Y-72898000D01*
X130022600Y-74422000D01*
D11*
X171845653Y-98512380D02*
X171274225Y-98512380D01*
X171684939Y-99512380D02*
X171559939Y-98512380D01*
X171065891Y-99512380D02*
X170940891Y-98512380D01*
X170542082Y-99131428D02*
X169780177Y-99131428D01*
X168952796Y-98988571D02*
X169286129Y-98988571D01*
X169351605Y-99512380D02*
X169226605Y-98512380D01*
X168750415Y-98512380D01*
X168494463Y-99512380D02*
X168369463Y-98512380D01*
X167256367Y-99512380D02*
X167131367Y-98512380D01*
X166893272Y-98512380D01*
X166756367Y-98560000D01*
X166673034Y-98655238D01*
X166637320Y-98750476D01*
X166613510Y-98940952D01*
X166631367Y-99083809D01*
X166702796Y-99274285D01*
X166762320Y-99369523D01*
X166869463Y-99464761D01*
X167018272Y-99512380D01*
X167256367Y-99512380D01*
X166268272Y-99226666D02*
X165792082Y-99226666D01*
X166399225Y-99512380D02*
X165940891Y-98512380D01*
X165732558Y-99512380D01*
X165274225Y-98512380D02*
X165375415Y-99321904D01*
X165339701Y-99417142D01*
X165298034Y-99464761D01*
X165208748Y-99512380D01*
X165018272Y-99512380D01*
X164917082Y-99464761D01*
X164863510Y-99417142D01*
X164803986Y-99321904D01*
X164702796Y-98512380D01*
X163708748Y-98560000D02*
X163798034Y-98512380D01*
X163940891Y-98512380D01*
X164089701Y-98560000D01*
X164196844Y-98655238D01*
X164256367Y-98750476D01*
X164327796Y-98940952D01*
X164345653Y-99083809D01*
X164321844Y-99274285D01*
X164286129Y-99369523D01*
X164202796Y-99464761D01*
X164065891Y-99512380D01*
X163970653Y-99512380D01*
X163821844Y-99464761D01*
X163768272Y-99417142D01*
X163726605Y-99083809D01*
X163917082Y-99083809D01*
X163351605Y-99512380D02*
X163226605Y-98512380D01*
X163286129Y-98988571D02*
X162714701Y-98988571D01*
X162780177Y-99512380D02*
X162655177Y-98512380D01*
X162321844Y-98512380D02*
X161750415Y-98512380D01*
X162161129Y-99512380D02*
X162036129Y-98512380D01*
X161476605Y-98988571D02*
X161143272Y-98988571D01*
X161065891Y-99512380D02*
X161542082Y-99512380D01*
X161417082Y-98512380D01*
X160940891Y-98512380D01*
X160065891Y-99512380D02*
X160339701Y-99036190D01*
X160637320Y-99512380D02*
X160512320Y-98512380D01*
X160131367Y-98512380D01*
X160042082Y-98560000D01*
X160000415Y-98607619D01*
X159964701Y-98702857D01*
X159982558Y-98845714D01*
X160042082Y-98940952D01*
X160095653Y-98988571D01*
X160196844Y-99036190D01*
X160577796Y-99036190D01*
X159238510Y-98988571D02*
X159101605Y-99036190D01*
X159059939Y-99083809D01*
X159024225Y-99179047D01*
X159042082Y-99321904D01*
X159101605Y-99417142D01*
X159155177Y-99464761D01*
X159256367Y-99512380D01*
X159637320Y-99512380D01*
X159512320Y-98512380D01*
X159178986Y-98512380D01*
X159089701Y-98560000D01*
X159048034Y-98607619D01*
X159012320Y-98702857D01*
X159024225Y-98798095D01*
X159083748Y-98893333D01*
X159137320Y-98940952D01*
X159238510Y-98988571D01*
X159571844Y-98988571D01*
X158321844Y-98512380D02*
X158131367Y-98512380D01*
X158042082Y-98560000D01*
X157958748Y-98655238D01*
X157934939Y-98845714D01*
X157976605Y-99179047D01*
X158048034Y-99369523D01*
X158155177Y-99464761D01*
X158256367Y-99512380D01*
X158446844Y-99512380D01*
X158536129Y-99464761D01*
X158619463Y-99369523D01*
X158643272Y-99179047D01*
X158601605Y-98845714D01*
X158530177Y-98655238D01*
X158423034Y-98560000D01*
X158321844Y-98512380D01*
X157601605Y-99226666D02*
X157125415Y-99226666D01*
X157732558Y-99512380D02*
X157274225Y-98512380D01*
X157065891Y-99512380D01*
X156161129Y-99512380D02*
X156434939Y-99036190D01*
X156732558Y-99512380D02*
X156607558Y-98512380D01*
X156226605Y-98512380D01*
X156137320Y-98560000D01*
X156095653Y-98607619D01*
X156059939Y-98702857D01*
X156077796Y-98845714D01*
X156137320Y-98940952D01*
X156190891Y-98988571D01*
X156292082Y-99036190D01*
X156673034Y-99036190D01*
X155732558Y-99512380D02*
X155607558Y-98512380D01*
X155369463Y-98512380D01*
X155232558Y-98560000D01*
X155149225Y-98655238D01*
X155113510Y-98750476D01*
X155089701Y-98940952D01*
X155107558Y-99083809D01*
X155178986Y-99274285D01*
X155238510Y-99369523D01*
X155345653Y-99464761D01*
X155494463Y-99512380D01*
X155732558Y-99512380D01*
X171278419Y-101036380D02*
X171611752Y-100560190D01*
X171849847Y-101036380D02*
X171849847Y-100036380D01*
X171468895Y-100036380D01*
X171373657Y-100084000D01*
X171326038Y-100131619D01*
X171278419Y-100226857D01*
X171278419Y-100369714D01*
X171326038Y-100464952D01*
X171373657Y-100512571D01*
X171468895Y-100560190D01*
X171849847Y-100560190D01*
X170849847Y-100512571D02*
X170516514Y-100512571D01*
X170373657Y-101036380D02*
X170849847Y-101036380D01*
X170849847Y-100036380D01*
X170373657Y-100036380D01*
X170087942Y-100036380D02*
X169754609Y-101036380D01*
X169421276Y-100036380D01*
X168564133Y-101036380D02*
X169135561Y-101036380D01*
X168849847Y-101036380D02*
X168849847Y-100036380D01*
X168945085Y-100179238D01*
X169040323Y-100274476D01*
X169135561Y-100322095D01*
X129235104Y-75750800D02*
X129330342Y-75703180D01*
X129473200Y-75703180D01*
X129616057Y-75750800D01*
X129711295Y-75846038D01*
X129758914Y-75941276D01*
X129806533Y-76131752D01*
X129806533Y-76274609D01*
X129758914Y-76465085D01*
X129711295Y-76560323D01*
X129616057Y-76655561D01*
X129473200Y-76703180D01*
X129377961Y-76703180D01*
X129235104Y-76655561D01*
X129187485Y-76607942D01*
X129187485Y-76274609D01*
X129377961Y-76274609D01*
X128758914Y-76703180D02*
X128758914Y-75703180D01*
X128187485Y-76703180D01*
X128187485Y-75703180D01*
X127711295Y-76703180D02*
X127711295Y-75703180D01*
X127473200Y-75703180D01*
X127330342Y-75750800D01*
X127235104Y-75846038D01*
X127187485Y-75941276D01*
X127139866Y-76131752D01*
X127139866Y-76274609D01*
X127187485Y-76465085D01*
X127235104Y-76560323D01*
X127330342Y-76655561D01*
X127473200Y-76703180D01*
X127711295Y-76703180D01*
X128816076Y-73163180D02*
X129292266Y-73163180D01*
X129339885Y-73639371D01*
X129292266Y-73591752D01*
X129197028Y-73544133D01*
X128958933Y-73544133D01*
X128863695Y-73591752D01*
X128816076Y-73639371D01*
X128768457Y-73734609D01*
X128768457Y-73972704D01*
X128816076Y-74067942D01*
X128863695Y-74115561D01*
X128958933Y-74163180D01*
X129197028Y-74163180D01*
X129292266Y-74115561D01*
X129339885Y-74067942D01*
X128482742Y-73163180D02*
X128149409Y-74163180D01*
X127816076Y-73163180D01*
X119119495Y-73163180D02*
X118500447Y-73163180D01*
X118833780Y-73544133D01*
X118690923Y-73544133D01*
X118595685Y-73591752D01*
X118548066Y-73639371D01*
X118500447Y-73734609D01*
X118500447Y-73972704D01*
X118548066Y-74067942D01*
X118595685Y-74115561D01*
X118690923Y-74163180D01*
X118976638Y-74163180D01*
X119071876Y-74115561D01*
X119119495Y-74067942D01*
X118214733Y-73163180D02*
X117881400Y-74163180D01*
X117548066Y-73163180D01*
X117309971Y-73163180D02*
X116690923Y-73163180D01*
X117024257Y-73544133D01*
X116881400Y-73544133D01*
X116786161Y-73591752D01*
X116738542Y-73639371D01*
X116690923Y-73734609D01*
X116690923Y-73972704D01*
X116738542Y-74067942D01*
X116786161Y-74115561D01*
X116881400Y-74163180D01*
X117167114Y-74163180D01*
X117262352Y-74115561D01*
X117309971Y-74067942D01*
X172440504Y-73236200D02*
X172535742Y-73188580D01*
X172678600Y-73188580D01*
X172821457Y-73236200D01*
X172916695Y-73331438D01*
X172964314Y-73426676D01*
X173011933Y-73617152D01*
X173011933Y-73760009D01*
X172964314Y-73950485D01*
X172916695Y-74045723D01*
X172821457Y-74140961D01*
X172678600Y-74188580D01*
X172583361Y-74188580D01*
X172440504Y-74140961D01*
X172392885Y-74093342D01*
X172392885Y-73760009D01*
X172583361Y-73760009D01*
X171964314Y-74188580D02*
X171964314Y-73188580D01*
X171392885Y-74188580D01*
X171392885Y-73188580D01*
X170916695Y-74188580D02*
X170916695Y-73188580D01*
X170678600Y-73188580D01*
X170535742Y-73236200D01*
X170440504Y-73331438D01*
X170392885Y-73426676D01*
X170345266Y-73617152D01*
X170345266Y-73760009D01*
X170392885Y-73950485D01*
X170440504Y-74045723D01*
X170535742Y-74140961D01*
X170678600Y-74188580D01*
X170916695Y-74188580D01*
%TO.C,REF\u002A\u002A*%
G36*
X145190275Y-95716131D02*
G01*
X145274095Y-96160755D01*
X145892667Y-96415751D01*
X146263707Y-96163446D01*
X146337144Y-96113706D01*
X146434499Y-96048418D01*
X146518787Y-95992654D01*
X146585631Y-95949278D01*
X146630654Y-95921153D01*
X146649478Y-95911142D01*
X146661039Y-95918261D01*
X146695596Y-95948094D01*
X146747894Y-95997052D01*
X146813500Y-96060640D01*
X146887983Y-96134363D01*
X146966913Y-96213725D01*
X147045856Y-96294231D01*
X147120384Y-96371385D01*
X147186063Y-96440693D01*
X147238463Y-96497657D01*
X147273153Y-96537784D01*
X147285701Y-96556577D01*
X147282782Y-96564651D01*
X147262571Y-96600669D01*
X147225663Y-96659944D01*
X147175050Y-96737830D01*
X147113725Y-96829681D01*
X147044679Y-96930850D01*
X147006787Y-96986026D01*
X146941606Y-97082084D01*
X146885723Y-97165917D01*
X146842117Y-97232977D01*
X146813769Y-97278719D01*
X146803657Y-97298596D01*
X146803823Y-97299697D01*
X146812743Y-97324894D01*
X146833206Y-97376347D01*
X146862360Y-97447335D01*
X146897353Y-97531135D01*
X146935332Y-97621028D01*
X146973445Y-97710291D01*
X147008839Y-97792203D01*
X147038662Y-97860043D01*
X147060061Y-97907090D01*
X147070184Y-97926622D01*
X147076174Y-97928355D01*
X147112566Y-97936169D01*
X147177427Y-97949115D01*
X147265565Y-97966179D01*
X147371787Y-97986351D01*
X147490902Y-98008618D01*
X147553683Y-98020423D01*
X147668912Y-98042948D01*
X147769662Y-98063750D01*
X147850426Y-98081635D01*
X147905698Y-98095408D01*
X147929971Y-98103874D01*
X147934331Y-98112266D01*
X147941563Y-98153272D01*
X147947246Y-98221568D01*
X147951382Y-98310729D01*
X147953977Y-98414328D01*
X147955036Y-98525940D01*
X147954561Y-98639138D01*
X147952559Y-98747496D01*
X147949033Y-98844589D01*
X147943987Y-98923990D01*
X147937427Y-98979272D01*
X147929356Y-99004010D01*
X147924458Y-99006800D01*
X147887930Y-99018769D01*
X147824565Y-99034605D01*
X147741686Y-99052574D01*
X147646618Y-99070941D01*
X147614542Y-99076791D01*
X147466393Y-99103998D01*
X147349961Y-99125863D01*
X147261209Y-99143293D01*
X147196103Y-99157196D01*
X147150606Y-99168477D01*
X147120682Y-99178043D01*
X147102294Y-99186801D01*
X147091407Y-99195657D01*
X147090142Y-99197143D01*
X147072338Y-99228131D01*
X147045994Y-99284834D01*
X147013661Y-99360599D01*
X146977893Y-99448774D01*
X146941244Y-99542707D01*
X146906266Y-99635747D01*
X146875513Y-99721241D01*
X146851538Y-99792536D01*
X146836895Y-99842982D01*
X146834136Y-99865926D01*
X146835981Y-99868903D01*
X146855075Y-99897693D01*
X146890984Y-99950795D01*
X146940378Y-100023317D01*
X146999927Y-100110367D01*
X147066303Y-100207054D01*
X147084520Y-100233656D01*
X147148577Y-100329075D01*
X147203937Y-100414412D01*
X147247439Y-100484605D01*
X147275924Y-100534594D01*
X147286232Y-100559316D01*
X147284011Y-100565816D01*
X147260858Y-100597844D01*
X147215177Y-100650145D01*
X147150241Y-100719199D01*
X147069319Y-100801486D01*
X146975685Y-100893486D01*
X146922165Y-100944981D01*
X146837542Y-101025183D01*
X146763475Y-101093878D01*
X146703941Y-101147452D01*
X146662917Y-101182285D01*
X146644381Y-101194763D01*
X146631646Y-101190138D01*
X146592436Y-101168257D01*
X146535495Y-101132473D01*
X146468250Y-101087317D01*
X146420438Y-101054365D01*
X146324985Y-100988927D01*
X146223125Y-100919428D01*
X146130088Y-100856275D01*
X145947832Y-100733000D01*
X145794841Y-100815720D01*
X145758817Y-100834813D01*
X145693303Y-100867472D01*
X145642640Y-100890019D01*
X145615564Y-100898426D01*
X145606703Y-100887630D01*
X145584699Y-100846523D01*
X145552199Y-100778749D01*
X145511010Y-100688609D01*
X145462942Y-100580405D01*
X145409802Y-100458437D01*
X145353399Y-100327008D01*
X145295542Y-100190418D01*
X145238038Y-100052967D01*
X145182697Y-99918958D01*
X145131326Y-99792691D01*
X145085735Y-99678468D01*
X145047732Y-99580590D01*
X145019124Y-99503357D01*
X145001721Y-99451071D01*
X144997331Y-99428033D01*
X144997628Y-99427360D01*
X145018077Y-99406063D01*
X145060850Y-99372708D01*
X145117117Y-99334211D01*
X145134877Y-99322456D01*
X145270014Y-99210935D01*
X145381856Y-99078106D01*
X145467755Y-98929498D01*
X145525062Y-98770640D01*
X145551131Y-98607060D01*
X145543313Y-98444288D01*
X145511644Y-98299515D01*
X145454782Y-98153324D01*
X145371888Y-98022903D01*
X145258131Y-97899013D01*
X145213433Y-97859435D01*
X145068935Y-97761923D01*
X144912838Y-97696250D01*
X144749667Y-97661830D01*
X144583943Y-97658074D01*
X144420192Y-97684394D01*
X144262936Y-97740203D01*
X144116698Y-97824914D01*
X143986004Y-97937937D01*
X143875374Y-98078687D01*
X143854105Y-98113542D01*
X143781810Y-98272855D01*
X143743415Y-98438752D01*
X143737914Y-98606937D01*
X143764301Y-98773113D01*
X143821570Y-98932984D01*
X143908717Y-99082253D01*
X144024736Y-99216623D01*
X144168622Y-99331799D01*
X144173294Y-99334902D01*
X144228964Y-99374133D01*
X144270689Y-99407486D01*
X144289746Y-99428033D01*
X144287342Y-99444141D01*
X144272391Y-99491044D01*
X144245881Y-99563739D01*
X144209620Y-99657925D01*
X144165416Y-99769298D01*
X144115076Y-99893558D01*
X144060407Y-100026402D01*
X144003218Y-100163527D01*
X143945316Y-100300632D01*
X143888510Y-100433415D01*
X143834606Y-100557574D01*
X143785412Y-100668806D01*
X143742737Y-100762809D01*
X143708387Y-100835282D01*
X143684171Y-100881922D01*
X143671897Y-100898426D01*
X143661689Y-100896191D01*
X143621586Y-100880126D01*
X143562318Y-100851959D01*
X143492619Y-100815720D01*
X143339629Y-100733000D01*
X143157373Y-100856275D01*
X143103527Y-100892779D01*
X143003374Y-100960984D01*
X142903525Y-101029298D01*
X142819211Y-101087317D01*
X142772679Y-101118936D01*
X142712200Y-101158220D01*
X142667357Y-101185112D01*
X142645455Y-101195083D01*
X142636045Y-101190850D01*
X142602031Y-101164921D01*
X142549595Y-101119270D01*
X142483301Y-101058386D01*
X142407713Y-100986761D01*
X142327396Y-100908883D01*
X142246913Y-100829245D01*
X142170829Y-100752335D01*
X142103707Y-100682645D01*
X142050112Y-100624664D01*
X142014608Y-100582884D01*
X142001759Y-100561793D01*
X142002500Y-100557781D01*
X142017793Y-100525120D01*
X142050462Y-100468612D01*
X142097350Y-100393363D01*
X142155301Y-100304475D01*
X142221157Y-100207054D01*
X142239627Y-100180182D01*
X142304482Y-100085623D01*
X142361609Y-100002027D01*
X142407678Y-99934284D01*
X142439359Y-99887286D01*
X142453324Y-99865926D01*
X142453668Y-99865011D01*
X142449546Y-99838878D01*
X142433807Y-99785940D01*
X142409004Y-99712847D01*
X142377689Y-99626252D01*
X142342417Y-99532808D01*
X142305740Y-99439165D01*
X142270212Y-99351977D01*
X142238386Y-99277895D01*
X142212816Y-99223571D01*
X142196053Y-99195657D01*
X142194374Y-99193924D01*
X142182372Y-99185156D01*
X142162103Y-99176315D01*
X142129529Y-99166492D01*
X142080616Y-99154783D01*
X142011327Y-99140280D01*
X141917625Y-99122076D01*
X141795476Y-99099266D01*
X141640842Y-99070941D01*
X141608770Y-99064980D01*
X141516893Y-99046552D01*
X141439607Y-99029092D01*
X141384236Y-99014333D01*
X141358105Y-99004010D01*
X141353733Y-98995397D01*
X141346445Y-98954026D01*
X141340669Y-98885441D01*
X141336410Y-98796068D01*
X141333673Y-98692335D01*
X141332462Y-98580665D01*
X141332782Y-98467487D01*
X141334636Y-98359226D01*
X141338030Y-98262308D01*
X141342967Y-98183159D01*
X141349452Y-98128206D01*
X141357489Y-98103874D01*
X141365696Y-98100279D01*
X141406519Y-98088948D01*
X141475524Y-98072922D01*
X141567203Y-98053395D01*
X141676050Y-98031562D01*
X141796558Y-98008618D01*
X141862357Y-97996359D01*
X141975135Y-97975101D01*
X142072207Y-97956487D01*
X142148382Y-97941528D01*
X142198469Y-97931236D01*
X142217276Y-97926622D01*
X142217983Y-97925671D01*
X142229961Y-97901510D01*
X142252794Y-97850894D01*
X142283630Y-97780538D01*
X142319613Y-97697158D01*
X142357891Y-97607470D01*
X142395609Y-97518189D01*
X142429913Y-97436032D01*
X142457949Y-97367713D01*
X142476864Y-97319948D01*
X142483803Y-97299454D01*
X142480742Y-97292243D01*
X142460372Y-97257928D01*
X142423422Y-97200170D01*
X142372860Y-97123499D01*
X142311657Y-97032448D01*
X142242781Y-96931550D01*
X142204994Y-96876293D01*
X142139782Y-96779415D01*
X142083871Y-96694393D01*
X142040241Y-96625862D01*
X142011877Y-96578460D01*
X142001759Y-96556823D01*
X142008790Y-96545087D01*
X142038197Y-96510018D01*
X142086441Y-96456945D01*
X142149093Y-96390364D01*
X142221725Y-96314774D01*
X142299908Y-96234672D01*
X142379214Y-96154554D01*
X142455213Y-96078918D01*
X142523478Y-96012262D01*
X142579580Y-95959082D01*
X142619090Y-95923876D01*
X142637579Y-95911142D01*
X142647843Y-95916093D01*
X142685530Y-95939057D01*
X142746348Y-95978138D01*
X142825913Y-96030472D01*
X142919843Y-96093196D01*
X143023754Y-96163446D01*
X143394794Y-96415751D01*
X143704080Y-96288253D01*
X144013365Y-96160755D01*
X144097186Y-95716131D01*
X144181006Y-95271507D01*
X145106454Y-95271507D01*
X145190275Y-95716131D01*
G37*
D12*
X145190275Y-95716131D02*
X145274095Y-96160755D01*
X145892667Y-96415751D01*
X146263707Y-96163446D01*
X146337144Y-96113706D01*
X146434499Y-96048418D01*
X146518787Y-95992654D01*
X146585631Y-95949278D01*
X146630654Y-95921153D01*
X146649478Y-95911142D01*
X146661039Y-95918261D01*
X146695596Y-95948094D01*
X146747894Y-95997052D01*
X146813500Y-96060640D01*
X146887983Y-96134363D01*
X146966913Y-96213725D01*
X147045856Y-96294231D01*
X147120384Y-96371385D01*
X147186063Y-96440693D01*
X147238463Y-96497657D01*
X147273153Y-96537784D01*
X147285701Y-96556577D01*
X147282782Y-96564651D01*
X147262571Y-96600669D01*
X147225663Y-96659944D01*
X147175050Y-96737830D01*
X147113725Y-96829681D01*
X147044679Y-96930850D01*
X147006787Y-96986026D01*
X146941606Y-97082084D01*
X146885723Y-97165917D01*
X146842117Y-97232977D01*
X146813769Y-97278719D01*
X146803657Y-97298596D01*
X146803823Y-97299697D01*
X146812743Y-97324894D01*
X146833206Y-97376347D01*
X146862360Y-97447335D01*
X146897353Y-97531135D01*
X146935332Y-97621028D01*
X146973445Y-97710291D01*
X147008839Y-97792203D01*
X147038662Y-97860043D01*
X147060061Y-97907090D01*
X147070184Y-97926622D01*
X147076174Y-97928355D01*
X147112566Y-97936169D01*
X147177427Y-97949115D01*
X147265565Y-97966179D01*
X147371787Y-97986351D01*
X147490902Y-98008618D01*
X147553683Y-98020423D01*
X147668912Y-98042948D01*
X147769662Y-98063750D01*
X147850426Y-98081635D01*
X147905698Y-98095408D01*
X147929971Y-98103874D01*
X147934331Y-98112266D01*
X147941563Y-98153272D01*
X147947246Y-98221568D01*
X147951382Y-98310729D01*
X147953977Y-98414328D01*
X147955036Y-98525940D01*
X147954561Y-98639138D01*
X147952559Y-98747496D01*
X147949033Y-98844589D01*
X147943987Y-98923990D01*
X147937427Y-98979272D01*
X147929356Y-99004010D01*
X147924458Y-99006800D01*
X147887930Y-99018769D01*
X147824565Y-99034605D01*
X147741686Y-99052574D01*
X147646618Y-99070941D01*
X147614542Y-99076791D01*
X147466393Y-99103998D01*
X147349961Y-99125863D01*
X147261209Y-99143293D01*
X147196103Y-99157196D01*
X147150606Y-99168477D01*
X147120682Y-99178043D01*
X147102294Y-99186801D01*
X147091407Y-99195657D01*
X147090142Y-99197143D01*
X147072338Y-99228131D01*
X147045994Y-99284834D01*
X147013661Y-99360599D01*
X146977893Y-99448774D01*
X146941244Y-99542707D01*
X146906266Y-99635747D01*
X146875513Y-99721241D01*
X146851538Y-99792536D01*
X146836895Y-99842982D01*
X146834136Y-99865926D01*
X146835981Y-99868903D01*
X146855075Y-99897693D01*
X146890984Y-99950795D01*
X146940378Y-100023317D01*
X146999927Y-100110367D01*
X147066303Y-100207054D01*
X147084520Y-100233656D01*
X147148577Y-100329075D01*
X147203937Y-100414412D01*
X147247439Y-100484605D01*
X147275924Y-100534594D01*
X147286232Y-100559316D01*
X147284011Y-100565816D01*
X147260858Y-100597844D01*
X147215177Y-100650145D01*
X147150241Y-100719199D01*
X147069319Y-100801486D01*
X146975685Y-100893486D01*
X146922165Y-100944981D01*
X146837542Y-101025183D01*
X146763475Y-101093878D01*
X146703941Y-101147452D01*
X146662917Y-101182285D01*
X146644381Y-101194763D01*
X146631646Y-101190138D01*
X146592436Y-101168257D01*
X146535495Y-101132473D01*
X146468250Y-101087317D01*
X146420438Y-101054365D01*
X146324985Y-100988927D01*
X146223125Y-100919428D01*
X146130088Y-100856275D01*
X145947832Y-100733000D01*
X145794841Y-100815720D01*
X145758817Y-100834813D01*
X145693303Y-100867472D01*
X145642640Y-100890019D01*
X145615564Y-100898426D01*
X145606703Y-100887630D01*
X145584699Y-100846523D01*
X145552199Y-100778749D01*
X145511010Y-100688609D01*
X145462942Y-100580405D01*
X145409802Y-100458437D01*
X145353399Y-100327008D01*
X145295542Y-100190418D01*
X145238038Y-100052967D01*
X145182697Y-99918958D01*
X145131326Y-99792691D01*
X145085735Y-99678468D01*
X145047732Y-99580590D01*
X145019124Y-99503357D01*
X145001721Y-99451071D01*
X144997331Y-99428033D01*
X144997628Y-99427360D01*
X145018077Y-99406063D01*
X145060850Y-99372708D01*
X145117117Y-99334211D01*
X145134877Y-99322456D01*
X145270014Y-99210935D01*
X145381856Y-99078106D01*
X145467755Y-98929498D01*
X145525062Y-98770640D01*
X145551131Y-98607060D01*
X145543313Y-98444288D01*
X145511644Y-98299515D01*
X145454782Y-98153324D01*
X145371888Y-98022903D01*
X145258131Y-97899013D01*
X145213433Y-97859435D01*
X145068935Y-97761923D01*
X144912838Y-97696250D01*
X144749667Y-97661830D01*
X144583943Y-97658074D01*
X144420192Y-97684394D01*
X144262936Y-97740203D01*
X144116698Y-97824914D01*
X143986004Y-97937937D01*
X143875374Y-98078687D01*
X143854105Y-98113542D01*
X143781810Y-98272855D01*
X143743415Y-98438752D01*
X143737914Y-98606937D01*
X143764301Y-98773113D01*
X143821570Y-98932984D01*
X143908717Y-99082253D01*
X144024736Y-99216623D01*
X144168622Y-99331799D01*
X144173294Y-99334902D01*
X144228964Y-99374133D01*
X144270689Y-99407486D01*
X144289746Y-99428033D01*
X144287342Y-99444141D01*
X144272391Y-99491044D01*
X144245881Y-99563739D01*
X144209620Y-99657925D01*
X144165416Y-99769298D01*
X144115076Y-99893558D01*
X144060407Y-100026402D01*
X144003218Y-100163527D01*
X143945316Y-100300632D01*
X143888510Y-100433415D01*
X143834606Y-100557574D01*
X143785412Y-100668806D01*
X143742737Y-100762809D01*
X143708387Y-100835282D01*
X143684171Y-100881922D01*
X143671897Y-100898426D01*
X143661689Y-100896191D01*
X143621586Y-100880126D01*
X143562318Y-100851959D01*
X143492619Y-100815720D01*
X143339629Y-100733000D01*
X143157373Y-100856275D01*
X143103527Y-100892779D01*
X143003374Y-100960984D01*
X142903525Y-101029298D01*
X142819211Y-101087317D01*
X142772679Y-101118936D01*
X142712200Y-101158220D01*
X142667357Y-101185112D01*
X142645455Y-101195083D01*
X142636045Y-101190850D01*
X142602031Y-101164921D01*
X142549595Y-101119270D01*
X142483301Y-101058386D01*
X142407713Y-100986761D01*
X142327396Y-100908883D01*
X142246913Y-100829245D01*
X142170829Y-100752335D01*
X142103707Y-100682645D01*
X142050112Y-100624664D01*
X142014608Y-100582884D01*
X142001759Y-100561793D01*
X142002500Y-100557781D01*
X142017793Y-100525120D01*
X142050462Y-100468612D01*
X142097350Y-100393363D01*
X142155301Y-100304475D01*
X142221157Y-100207054D01*
X142239627Y-100180182D01*
X142304482Y-100085623D01*
X142361609Y-100002027D01*
X142407678Y-99934284D01*
X142439359Y-99887286D01*
X142453324Y-99865926D01*
X142453668Y-99865011D01*
X142449546Y-99838878D01*
X142433807Y-99785940D01*
X142409004Y-99712847D01*
X142377689Y-99626252D01*
X142342417Y-99532808D01*
X142305740Y-99439165D01*
X142270212Y-99351977D01*
X142238386Y-99277895D01*
X142212816Y-99223571D01*
X142196053Y-99195657D01*
X142194374Y-99193924D01*
X142182372Y-99185156D01*
X142162103Y-99176315D01*
X142129529Y-99166492D01*
X142080616Y-99154783D01*
X142011327Y-99140280D01*
X141917625Y-99122076D01*
X141795476Y-99099266D01*
X141640842Y-99070941D01*
X141608770Y-99064980D01*
X141516893Y-99046552D01*
X141439607Y-99029092D01*
X141384236Y-99014333D01*
X141358105Y-99004010D01*
X141353733Y-98995397D01*
X141346445Y-98954026D01*
X141340669Y-98885441D01*
X141336410Y-98796068D01*
X141333673Y-98692335D01*
X141332462Y-98580665D01*
X141332782Y-98467487D01*
X141334636Y-98359226D01*
X141338030Y-98262308D01*
X141342967Y-98183159D01*
X141349452Y-98128206D01*
X141357489Y-98103874D01*
X141365696Y-98100279D01*
X141406519Y-98088948D01*
X141475524Y-98072922D01*
X141567203Y-98053395D01*
X141676050Y-98031562D01*
X141796558Y-98008618D01*
X141862357Y-97996359D01*
X141975135Y-97975101D01*
X142072207Y-97956487D01*
X142148382Y-97941528D01*
X142198469Y-97931236D01*
X142217276Y-97926622D01*
X142217983Y-97925671D01*
X142229961Y-97901510D01*
X142252794Y-97850894D01*
X142283630Y-97780538D01*
X142319613Y-97697158D01*
X142357891Y-97607470D01*
X142395609Y-97518189D01*
X142429913Y-97436032D01*
X142457949Y-97367713D01*
X142476864Y-97319948D01*
X142483803Y-97299454D01*
X142480742Y-97292243D01*
X142460372Y-97257928D01*
X142423422Y-97200170D01*
X142372860Y-97123499D01*
X142311657Y-97032448D01*
X142242781Y-96931550D01*
X142204994Y-96876293D01*
X142139782Y-96779415D01*
X142083871Y-96694393D01*
X142040241Y-96625862D01*
X142011877Y-96578460D01*
X142001759Y-96556823D01*
X142008790Y-96545087D01*
X142038197Y-96510018D01*
X142086441Y-96456945D01*
X142149093Y-96390364D01*
X142221725Y-96314774D01*
X142299908Y-96234672D01*
X142379214Y-96154554D01*
X142455213Y-96078918D01*
X142523478Y-96012262D01*
X142579580Y-95959082D01*
X142619090Y-95923876D01*
X142637579Y-95911142D01*
X142647843Y-95916093D01*
X142685530Y-95939057D01*
X142746348Y-95978138D01*
X142825913Y-96030472D01*
X142919843Y-96093196D01*
X143023754Y-96163446D01*
X143394794Y-96415751D01*
X143704080Y-96288253D01*
X144013365Y-96160755D01*
X144097186Y-95716131D01*
X144181006Y-95271507D01*
X145106454Y-95271507D01*
X145190275Y-95716131D01*
%TD*%
M02*
